<?xml version="1.0" encoding="UTF-8"?> <!-- Generator: Adobe Illustrator 22.1.0, SVG Export Plug-In . SVG Version: 6.00 Build 0) --> <svg xmlns="http://www.w3.org/2000/svg" xmlns:xlink="http://www.w3.org/1999/xlink" id="Capa_1" x="0px" y="0px" width="60px" height="60px" viewBox="0 0 60 60" xml:space="preserve"> <path fill="#007bff" d="M46.8,59.1H13.1v-7.5c0-1,0.8-1.9,1.9-1.9h30c1,0,1.9,0.8,1.9,1.9L46.8,59.1L46.8,59.1z"></path> <path fill="#007bff" d="M30,1c-6.7,0-12.2,2.6-12.2,5.9v7.2h24.4V6.9C42.1,3.6,36.7,1,30,1z"></path> <g> <path fill="#007bff" d="M17.8,6.9v7.2h6.6V6.9C24.3,3.6,26.8,1,30,1C23.2,1,17.8,3.6,17.8,6.9z"></path> <path fill="#007bff" d="M30,15c3,0,5.7,0.5,7.5,1.3c0.6,0.3,1.4,0.2,2-0.2l2.7-2c-2.4-1.7-6.9-2.8-12.2-2.8s-9.8,1.1-12.2,2.8 l2.7,2c0.6,0.4,1.3,0.5,2,0.2C24.2,15.6,26.9,15,30,15z"></path> </g> <g> <path fill="#007bff" d="M43.1,46H45c0.5,0,0.9-0.4,0.9-0.9v-7.3l-3.8-1v8.3C42.1,45.6,42.6,46,43.1,46z"></path> <path fill="#007bff" d="M14.9,46h1.9c0.5,0,0.9-0.4,0.9-0.9v-8.3l-3.8,1V45C14,45.6,14.4,46,14.9,46z"></path> </g> <path fill="#333333" d="M30,26.2c2,0,3.8-0.9,4.5-2.4c0.2-0.4,0-1-0.4-1.2c-0.4-0.2-1,0-1.2,0.4c-0.4,0.8-1.6,1.4-3,1.4 c-1.3,0-2.5-0.6-3-1.4c-0.2-0.4-0.7-0.6-1.2-0.4c-0.4,0.2-0.6,0.7-0.4,1.2C26.1,25.3,27.9,26.2,30,26.2z"></path> <path fill="#333333" d="M50,38l-8.6-2.4c-1.2-0.3-2.1-1.5-2.1-2.8v-5.3c1.6-1.9,2.6-4.3,2.8-6.9c0,0,0.1,0,0.1,0 c1.5,0,2.7-1.2,2.7-2.7v-0.9c0-1.2-0.8-2.2-1.9-2.6V6.9c0-1.9-1.4-3.7-4.1-5c-2.4-1.2-5.6-1.8-9-1.8s-6.6,0.6-9,1.8 c-2.6,1.3-4.1,3-4.1,5v7.4c-1.1,0.4-1.9,1.4-1.9,2.6v0.9c0,1.5,1.2,2.7,2.7,2.7c0,0,0.1,0,0.1,0c0.2,2.6,1.2,5,2.8,6.9v5.3 c0,1.3-0.9,2.4-2.1,2.8L9.9,38c-3.6,1-6.1,4.3-6.1,8.1v13.1c0,0.5,0.4,0.9,0.9,0.9s0.9-0.4,0.9-0.9V46.1c0-3,2-5.6,4.9-6.4l2.8-0.8 V45c0,1,0.8,1.8,1.8,1.8H15v2h-0.1c-1.5,0-2.7,1.2-2.7,2.7v7.5c0,0.5,0.4,0.9,0.9,0.9s0.9-0.4,0.9-0.9v-7.5c0-0.5,0.4-1,1-1h1.9 c0.5,0,0.9-0.4,0.9-0.9c0-0.5-0.4-0.9-0.9-0.9h-0.1v-2h0.1c1,0,1.8-0.8,1.8-1.8v-6.6c2.3,4,6.6,6.5,11.3,6.5s9-2.5,11.3-6.5v6.6 c0,1,0.8,1.8,1.8,1.8h0.1v2H20.6c-0.5,0-0.9,0.4-0.9,0.9s0.4,0.9,0.9,0.9H45c0.5,0,1,0.4,1,1v7.5c0,0.5,0.4,0.9,0.9,0.9 c0.5,0,0.9-0.4,0.9-0.9v-7.5c0-1.5-1.2-2.7-2.7-2.7h-0.1v-2H45c1,0,1.8-0.8,1.8-1.8v-6.1l2.8,0.8c2.9,0.8,4.9,3.4,4.9,6.4v13.1 c0,0.5,0.4,0.9,0.9,0.9s0.9-0.4,0.9-0.9V46.1C56.1,42.3,53.6,39,50,38z M21.7,3.5c2.2-1.1,5.1-1.6,8.2-1.6s6,0.6,8.2,1.6 c2,0.9,3.1,2.2,3.1,3.4v5.7c-0.5-0.2-1-0.5-1.6-0.7c-0.5-0.2-1,0.1-1.1,0.5c-0.2,0.5,0.1,1,0.5,1.1c0.6,0.2,1.1,0.4,1.5,0.6 l-1.7,1.3c-0.3,0.2-0.7,0.3-1.1,0.1c-2-0.9-4.8-1.4-7.9-1.4c-3,0-5.9,0.5-7.9,1.4c-0.3,0.2-0.7,0.1-1.1-0.1l-1.7-1.3 c2.5-1.3,6.4-2,10.6-2c1.9,0,3.8,0.2,5.5,0.4c0.5,0.1,0.9-0.2,1-0.7c0.1-0.5-0.2-0.9-0.7-1c-1.8-0.3-3.8-0.5-5.8-0.5 c-4.4,0-8.6,0.8-11.3,2.2V6.9C18.6,5.7,19.8,4.4,21.7,3.5z M19.1,18.7c-0.3-0.2-0.6-0.2-0.9,0c-0.2,0.1-0.3,0.1-0.5,0.1 c-0.5,0-1-0.4-1-1v-0.9c0-0.5,0.4-1,1-1c0.2,0,0.3,0,0.5,0.1c0.2,0.1,0.5,0.2,0.7,0.1l1,0.7c0.5,0.4,1.1,0.6,1.7,0.6 c0.4,0,0.8-0.1,1.1-0.2c0.2-0.1,0.4-0.2,0.6-0.3v0.9c0,0.5,0.4,0.9,0.9,0.9c0.5,0,0.9-0.4,0.9-0.9v-1.5c1.4-0.3,3-0.5,4.7-0.5 s3.3,0.2,4.7,0.5v1.5c0,0.5,0.4,0.9,0.9,0.9c0.5,0,0.9-0.4,0.9-0.9v-0.9c0.2,0.1,0.4,0.2,0.6,0.3c0.9,0.4,2,0.3,2.9-0.3l1-0.7 c0.2,0.1,0.5,0.1,0.7-0.1c0.2-0.1,0.3-0.1,0.5-0.1c0.5,0,1,0.4,1,1v0.9c0,0.5-0.4,1-1,1c-0.2,0-0.3,0-0.5-0.1 c-0.3-0.2-0.6-0.2-0.9,0c-0.3,0.2-0.4,0.4-0.4,0.8v0.3c0,5.7-4.7,10.4-10.4,10.4s-10.4-4.7-10.4-10.4v-0.3 C19.6,19.2,19.4,18.9,19.1,18.7z M16.8,45.1H15c0,0-0.1,0-0.1-0.1v-6.6l2-0.5L16.8,45.1C16.9,45.1,16.9,45.1,16.8,45.1z M30,43.2 c-4.3,0-8.2-2.4-10.1-6.3c1.5-0.8,2.6-2.4,2.6-4.1v-3.6c2.1,1.7,4.7,2.7,7.6,2.7c2.9,0,5.5-1,7.6-2.7v3.6c0,1.8,1,3.4,2.6,4.1 C38.2,40.8,34.3,43.2,30,43.2z M45,45.1C45,45.1,45,45.1,45,45.1l-1.9,0.1c0,0-0.1,0-0.1-0.1v-7.2l2,0.5L45,45.1L45,45.1z"></path> <path fill="#333333" d="M17.8,52.6h-0.9c-0.5,0-0.9,0.4-0.9,0.9s0.4,0.9,0.9,0.9h0.9c0.5,0,0.9-0.4,0.9-0.9S18.2,52.6,17.8,52.6z"></path> <path fill="#333333" d="M43.1,52.6h-0.9c-0.5,0-0.9,0.4-0.9,0.9s0.4,0.9,0.9,0.9h0.9c0.5,0,0.9-0.4,0.9-0.9S43.6,52.6,43.1,52.6z"></path> <path fill="#333333" d="M29,7h0.6l-0.5,1.1c-0.2,0.4,0,1,0.5,1.1c0.1,0,0.2,0.1,0.3,0.1c0.4,0,0.7-0.2,0.8-0.5l0.9-2.3 c0.1-0.3,0.1-0.6-0.1-0.8c-0.2-0.2-0.4-0.4-0.7-0.4h-0.6l0.5-1.1c0.2-0.4,0-1-0.5-1.1c-0.4-0.2-1,0-1.1,0.5l-0.9,2.3 c-0.1,0.3-0.1,0.6,0.1,0.8C28.5,6.9,28.7,7,29,7z"></path> </svg> 