<?xml version="1.0" encoding="UTF-8"?> <!-- Generator: Adobe Illustrator 22.1.0, SVG Export Plug-In . SVG Version: 6.00 Build 0) --> <svg xmlns="http://www.w3.org/2000/svg" xmlns:xlink="http://www.w3.org/1999/xlink" id="Capa_1" x="0px" y="0px" width="60px" height="60px" viewBox="0 0 60 60" xml:space="preserve"> <g> <path fill="#333333" d="M56,28c-0.3,0-0.5-0.1-0.7-0.3L32,4.4l-6.3,6.3c-0.4,0.4-1,0.4-1.4,0c-0.4-0.4-0.4-1,0-1.4l7-7 c0.4-0.4,1-0.4,1.4,0l24,24c0.4,0.4,0.4,1,0,1.4C56.5,27.9,56.3,28,56,28L56,28z"></path> <path fill="#333333" d="M8,28c-0.6,0-1-0.5-1-1c0-0.3,0.1-0.5,0.3-0.7l3-3c0.4-0.4,1-0.4,1.4,0c0.4,0.4,0.4,1,0,1.4l-3,3 C8.5,27.9,8.3,28,8,28L8,28z"></path> <path fill="#333333" d="M47.8,60H16.2c-1.2,0-2.4-0.7-3-1.7c-0.8-1-1.1-2.3-1.1-3.6V29c0-0.5,0.4-1,1-1s1,0.5,1,1v25.7 c0,0.9,0.2,1.7,0.7,2.4c0.3,0.5,0.9,0.8,1.4,0.8h31.7c0.6,0,1.1-0.3,1.4-0.8c0.5-0.7,0.8-1.6,0.7-2.4V30.3c0-0.5,0.5-1,1-1 s1,0.5,1,1v24.5c0,1.3-0.4,2.6-1.1,3.6C50.2,59.3,49,60,47.8,60L47.8,60z"></path> <path fill="#333333" d="M51,17c-0.5,0-1-0.5-1-1V3.3C50,2.6,49.5,2,48.8,2h-1.7C46.5,2,46,2.6,46,3.3v6.3c0,0.6-0.5,1-1,1 s-1-0.4-1-1V3.3c0-1.8,1.4-3.3,3.2-3.3h1.7C50.6,0.1,52,1.5,52,3.3V16C52,16.5,51.5,17,51,17z"></path> <path fill="#333333" d="M36,17h-8c-0.5,0-1-0.5-1-1c0-0.3,0.1-0.5,0.3-0.7l4-4c0.4-0.4,1-0.4,1.4,0c0.4,0.4,0.4,1,0,1.4L30.4,15H36 c0.5,0,1,0.4,1,1C37,16.5,36.5,17,36,17L36,17z"></path> </g> <path fill="#007bff" d="M4,1l8,8H6l7,7H8l12.5,12.5L17,20h5l-4-7h4L16,1H4z"></path> <path fill="#333333" d="M24.3,10.7c0.4,0.4,1,0.4,1.4,0L32,4.4l23.3,23.3c0.4,0.4,1,0.4,1.4,0c0.4-0.4,0.4-1,0-1.4l-24-24 c-0.4-0.4-1-0.4-1.4,0l-7,7C23.9,9.7,23.9,10.3,24.3,10.7L24.3,10.7z"></path> <path fill="#333333" d="M11.7,23.3c-0.4-0.4-1-0.4-1.4,0l-3,3c-0.4,0.4-0.4,1,0,1.4s1,0.4,1.4,0c0,0,0,0,0,0l3-3 C12.1,24.3,12.1,23.7,11.7,23.3z"></path> <path fill="#333333" d="M51,29.3c-0.5,0-1,0.5-1,1v24.5c0,0.9-0.2,1.7-0.7,2.4C49,57.6,48.4,58,47.8,58H16.2c-0.6,0-1.1-0.3-1.4-0.8 c-0.5-0.7-0.8-1.6-0.7-2.4V29c0-0.5-0.4-1-1-1s-1,0.5-1,1v25.7c0,1.3,0.4,2.6,1.1,3.6c0.7,1,1.8,1.6,3.1,1.7h31.7 c1.2,0,2.3-0.7,3-1.7c0.8-1,1.1-2.3,1.1-3.6V30.3C52,29.7,51.5,29.3,51,29.3z"></path> <path fill="#333333" d="M51,17c0.5,0,1-0.5,1-1V3.3C52,1.5,50.6,0,48.8,0h-1.7C45.4,0,44,1.5,44,3.3v6.3c0,0.6,0.5,1,1,1s1-0.4,1-1 V3.3C46,2.6,46.5,2,47.2,2h1.7C49.5,2,50,2.6,50,3.3V16C50,16.5,50.4,17,51,17z"></path> <path fill="#333333" d="M32.7,11.3c-0.4-0.4-1-0.4-1.4,0l-4,4c-0.4,0.4-0.4,1,0,1.4c0.2,0.2,0.4,0.3,0.7,0.3h8c0.5,0,1-0.5,1-1 s-0.5-1-1-1h-5.6l2.3-2.3C33.1,12.3,33.1,11.7,32.7,11.3z"></path> <path fill="#333333" d="M7.1,15.6C6.9,16,7,16.4,7.3,16.7l12.5,12.5c0.4,0.4,1,0.4,1.4,0c0.3-0.3,0.4-0.7,0.2-1.1L18.5,21H22 c0.5,0,1-0.5,1-1c0-0.2,0-0.4-0.1-0.5L19.7,14H22c0.5,0,1-0.4,1-1c0-0.1,0-0.3-0.1-0.4l-6-12C16.7,0.2,16.4,0,16,0H4 C3.4,0,3,0.4,3,1c0,0.3,0.1,0.5,0.3,0.7L9.6,8H6C5.4,8,5,8.4,5,9c0,0.3,0.1,0.5,0.3,0.7l5.3,5.3H8C7.6,15,7.2,15.3,7.1,15.6 L7.1,15.6z M13,17c0.6,0,1-0.5,1-1c0-0.3-0.1-0.5-0.3-0.7L8.4,10H12c0.6,0,1-0.4,1-1c0-0.3-0.1-0.5-0.3-0.7L6.4,2h9l5,10H18 c-0.5,0-1,0.4-1,1c0,0.2,0.1,0.4,0.1,0.5l3.1,5.5H17c-0.5,0-1,0.5-1,1c0,0.1,0,0.3,0.1,0.4l1.6,3.9L10.4,17H13z"></path> <path fill="#333333" d="M21.1,31.6v19.8h21.8V31.6H21.1z M31,33.6v6.9h-7.9v-6.9H31z M23.1,42.5H31v6.9h-7.9V42.5z M33,49.4v-6.9 h7.9v6.9H33z M40.9,40.5H33v-6.9h7.9V40.5z"></path> </svg> 