<?xml version="1.0" encoding="UTF-8"?> <!-- Generator: Adobe Illustrator 22.1.0, SVG Export Plug-In . SVG Version: 6.00 Build 0) --> <svg xmlns="http://www.w3.org/2000/svg" xmlns:xlink="http://www.w3.org/1999/xlink" id="Layer_1" x="0px" y="0px" width="60px" height="60px" viewBox="0 0 60 60" xml:space="preserve"> <g> <path fill="#007bff" d="M14.6,19c0,0-7,1.2-7.2,1.2S3.7,23,3.7,23l-2.1,5.5L1.2,51.9l4.3-1l1.3-14.1l0.6-9.4l1.9-2.6l11.4-0.4 c0,0,0.6-3.1,0.7-4.5L14.6,19z"></path> <polygon fill="#007bff" points="57.1,24.4 54.6,21.2 49.7,19.8 38.5,19.5 39.4,24.4 46.6,24.3 50.8,24.5 53,27.5 54.3,33.2 53.7,52.2 58.8,52.6 58.8,28.8 "></polygon> </g> <path fill="#333333" d="M26.3,20.8h-3.7v-0.1v-2.5h-2.5h-8.7c-4.5,0-8,2.1-9.9,5.8c-1.3,2.6-1.3,5.1-1.3,5.4v21.1v2.5h2.5h2.5h2.5 v-2.5V29.5c0-0.1,0.1-1.2,0.6-2.1c0.4-0.8,1.1-1.6,3.2-1.6h8.7h2.5v-2.4h3.7c0.7,0,1.2-0.6,1.2-1.2C27.5,21.4,27,20.8,26.3,20.8z M20.1,23.2h-8.7c-2.6,0-4.4,1-5.4,3c-0.8,1.6-0.8,3.2-0.8,3.3v21.1H2.6V29.5c0-0.1,0-2.2,1.1-4.3c1-2,3.1-4.4,7.6-4.4H20L20.1,23.2 L20.1,23.2z"></path> <path fill="#333333" d="M30,7.1c-0.7,0-1.2,0.6-1.2,1.2v5c0,0.7,0.6,1.2,1.2,1.2s1.2-0.6,1.2-1.2v-5C31.2,7.6,30.7,7.1,30,7.1z"></path> <path fill="#333333" d="M30,29.5c-0.7,0-1.2,0.6-1.2,1.2v5c0,0.7,0.6,1.2,1.2,1.2s1.2-0.6,1.2-1.2v-5C31.2,30,30.7,29.5,30,29.5z"></path> <path fill="#333333" d="M24.6,15.1c0.2,0.4,0.7,0.6,1.1,0.6c0.2,0,0.4-0.1,0.6-0.2c0.6-0.3,0.8-1.1,0.5-1.7l-2.5-4.3 c-0.3-0.6-1.1-0.8-1.7-0.5c-0.6,0.3-0.8,1.1-0.5,1.7L24.6,15.1z"></path> <path fill="#333333" d="M35.4,28.9c-0.3-0.6-1.1-0.8-1.7-0.5c-0.6,0.3-0.8,1.1-0.5,1.7l2.5,4.3c0.2,0.4,0.7,0.6,1.1,0.6 c0.2,0,0.4,0,0.6-0.2c0.6-0.3,0.8-1.1,0.5-1.7L35.4,28.9z"></path> <path fill="#333333" d="M26.3,28.5c-0.6-0.3-1.4-0.1-1.7,0.5l-2.5,4.3c-0.3,0.6-0.1,1.4,0.5,1.7c0.2,0.1,0.4,0.2,0.6,0.2 c0.4,0,0.9-0.2,1.1-0.6l2.5-4.3C27.1,29.6,26.9,28.8,26.3,28.5z"></path> <path fill="#333333" d="M33.7,15.5c0.2,0.1,0.4,0.2,0.6,0.2c0.4,0,0.9-0.2,1.1-0.6l2.5-4.3c0.3-0.6,0.1-1.4-0.5-1.7 c-0.6-0.3-1.4-0.1-1.7,0.5l-2.5,4.3C32.9,14.4,33.1,15.2,33.7,15.5z"></path> <path fill="#333333" d="M58.5,24.1c-1.9-3.7-5.4-5.8-9.9-5.8h-8.7h-2.5v2.5v0.1h-3.7c-0.7,0-1.2,0.6-1.2,1.2c0,0.7,0.6,1.2,1.2,1.2 h3.7v2.4h2.5h8.7c2.1,0,2.8,0.9,3.2,1.6c0.5,1,0.6,2,0.6,2.1v21.1v2.5h2.5h2.5h2.5v-2.5V29.5C59.9,29.2,59.8,26.6,58.5,24.1z M57.4,50.6h-2.5V29.5c0,0,0-1.7-0.8-3.3c-1-2-2.8-3-5.4-3h-8.7v-2.5h8.7c4.5,0,6.6,2.4,7.6,4.4c1,2.1,1.1,4.2,1.1,4.3L57.4,50.6 L57.4,50.6z"></path> </svg> 