<?xml version="1.0" encoding="UTF-8"?> <!-- Generator: Adobe Illustrator 22.1.0, SVG Export Plug-In . SVG Version: 6.00 Build 0) --> <svg xmlns="http://www.w3.org/2000/svg" xmlns:xlink="http://www.w3.org/1999/xlink" id="Capa_1" x="0px" y="0px" width="64px" height="64px" viewBox="0 0 64 64" xml:space="preserve"> <path fill="#007bff" d="M33.8,16.2l1.3,5.9c-1-0.1-2.1-0.2-3.2-0.2c-1.1,0-2.1,0-3.2,0.2l1.3-5.9H33.8z"></path> <path fill="#007bff" d="M26.8,55.1h10.4c-0.6,2.4-2.7,4.1-5.2,4.1C29.5,59.2,27.3,57.4,26.8,55.1z"></path> <path fill="#333333" d="M63.9,53.9c0,0.7-0.6,1.2-1.2,1.2h-23c-0.6,3.7-3.8,6.6-7.7,6.6s-7.1-2.8-7.7-6.6h-23 c-0.7,0-1.2-0.6-1.2-1.2c0-15.7,11.3-28.7,26.2-31.4l1.8-7.7c0.1-0.6,0.6-0.9,1.2-0.9h1.6V3.6c0-0.7,0.6-1.2,1.2-1.2 c0.7,0,1.2,0.6,1.2,1.2v10.2h1.6c0.6,0,1.1,0.4,1.2,0.9l1.8,7.7C52.6,25.2,63.9,38.2,63.9,53.9z M2.5,52.6h59 C60.8,36.9,47.9,24.4,32,24.4C16.1,24.3,3.2,36.9,2.5,52.6z M37.2,55.1H26.8c0.6,2.4,2.7,4.1,5.2,4.1C34.5,59.2,36.7,57.4,37.2,55.1 z M35.2,22.1l-1.3-5.9h-3.6l-1.3,5.9c1-0.1,2.1-0.2,3.2-0.2C33.1,21.9,34.1,22,35.2,22.1z"></path> <path fill="#333333" d="M59.4,49.5c0.1,0.7-0.3,1.3-1,1.4c-0.1,0-0.1,0-0.2,0c-0.6,0-1.1-0.4-1.2-1c-0.1-0.4-0.1-0.8-0.2-1.2 c-0.1-0.6,0.3-1.3,0.9-1.4c0.6-0.1,1.3,0.3,1.4,0.9C59.2,48.6,59.3,49,59.4,49.5z"></path> <path fill="#333333" d="M58.1,44.4c0.2,0.6-0.1,1.3-0.7,1.6c-0.1,0-0.3,0.1-0.4,0.1c-0.5,0-1-0.3-1.1-0.8 c-2.5-6.9-7.9-12.4-14.8-15.1c-0.6-0.2-0.9-0.9-0.7-1.6c0.2-0.6,0.9-0.9,1.6-0.7C49.4,30.8,55.3,36.8,58.1,44.4z"></path> <path fill="#333333" d="M36.4,26.5c0.7,0.1,1.1,0.7,1,1.4c-0.1,0.6-0.6,1-1.2,1c-0.1,0-0.1,0-0.2,0c-1.3-0.2-2.7-0.3-4-0.3 c-0.7,0-1.2-0.6-1.2-1.2s0.6-1.2,1.2-1.2C33.5,26.1,35,26.3,36.4,26.5z"></path> </svg> 