<?xml version="1.0" encoding="UTF-8"?> <!-- Generator: Adobe Illustrator 22.1.0, SVG Export Plug-In . SVG Version: 6.00 Build 0) --> <svg xmlns="http://www.w3.org/2000/svg" xmlns:xlink="http://www.w3.org/1999/xlink" id="Capa_1" x="0px" y="0px" width="60px" height="60px" viewBox="0 0 60 60" xml:space="preserve"> <path fill="#333333" d="M58.8,50.6v5.2c0,2.4-1.9,4.3-4.3,4.3h-49c-2.4,0-4.3-1.9-4.3-4.3v-5.2c0-2.4,1.9-4.3,4.3-4.3h10.6v-2.7H6 c-2.5,0-4.5-2-4.5-4.5V4.5C1.5,2,3.5,0,6,0h48c2.5,0,4.5,2,4.5,4.5v34.7c0,2.5-2,4.5-4.5,4.5H43.9v2.7h10.6 C56.9,46.3,58.8,48.2,58.8,50.6z M56.6,55.7v-5.2c0-1.1-0.9-2.1-2.1-2.1h-49c-1.1,0-2.1,0.9-2.1,2.1v5.2c0,1.1,0.9,2.1,2.1,2.1h49 C55.6,57.8,56.6,56.9,56.6,55.7z M56.2,39.2V4.5c0-1.2-1-2.2-2.2-2.2H6c-1.2,0-2.2,1-2.2,2.2v34.7c0,1.2,1,2.2,2.2,2.2h48 C55.2,41.4,56.2,40.4,56.2,39.2z M41.7,46.3v-2.7H18.3v2.7H41.7z"></path> <path fill="#007bff" d="M56.6,50.6v5.2c0,1.1-0.9,2.1-2.1,2.1h-49c-1.1,0-2.1-0.9-2.1-2.1v-5.2c0-1.1,0.9-2.1,2.1-2.1h49 C55.6,48.5,56.6,49.4,56.6,50.6z M53.6,53.1c0-0.6-0.5-1.1-1.1-1.1h-3.3c-0.6,0-1.1,0.5-1.1,1.1s0.5,1.1,1.1,1.1h3.3 C53.1,54.2,53.6,53.7,53.6,53.1z M27.9,53.1c0-0.6-0.5-1.1-1.1-1.1h-19c-0.6,0-1.1,0.5-1.1,1.1s0.5,1.1,1.1,1.1h19 C27.4,54.2,27.9,53.7,27.9,53.1z"></path> <path fill="#007bff" d="M56.2,4.5v34.7c0,1.2-1,2.2-2.2,2.2H6c-1.2,0-2.2-1-2.2-2.2V4.5c0-1.2,1-2.2,2.2-2.2h48 C55.2,2.2,56.2,3.2,56.2,4.5z M54,38.1V5.5c0-0.6-0.5-1.1-1.1-1.1H7.1C6.5,4.4,6,4.9,6,5.5v32.5c0,0.6,0.5,1.1,1.1,1.1h45.8 C53.5,39.2,54,38.7,54,38.1z"></path> <path fill="#333333" d="M54,5.5v32.5c0,0.6-0.5,1.1-1.1,1.1H7.1c-0.6,0-1.1-0.5-1.1-1.1V5.5c0-0.6,0.5-1.1,1.1-1.1h45.8 C53.5,4.4,54,4.9,54,5.5z M51.8,37v-4.6H43c-0.4,1.1-1.5,1.8-2.7,1.8c-1.6,0-3-1.3-3-3s1.3-3,3-3c1.2,0,2.3,0.8,2.7,1.8h8.8V11.6 H35.1l-2.8,2.8c0.2,0.4,0.3,0.8,0.3,1.2c0,1.6-1.3,3-3,3c-1.6,0-3-1.3-3-3s1.3-3,3-3c0.4,0,0.8,0.1,1.1,0.2l3.1-3.1 c0.2-0.2,0.5-0.3,0.8-0.3h17.2V6.6H8.2v9.7h7.2l2.8-2.8c-0.2-0.4-0.3-0.8-0.3-1.2c0-1.6,1.3-3,3-3c1.6,0,3,1.3,3,3s-1.3,3-3,3 c-0.4,0-0.8-0.1-1.1-0.2l-3.1,3.1c-0.2,0.2-0.5,0.3-0.8,0.3H8.2v2.2h30.4c0.4-1.1,1.5-1.8,2.7-1.8c1.6,0,3,1.3,3,3c0,1.6-1.3,3-3,3 c-1.2,0-2.3-0.8-2.7-1.8H8.2v2.2h17.4c0.3,0,0.6,0.1,0.8,0.3l3.1,3.1c0.3-0.1,0.7-0.2,1.1-0.2c1.6,0,3,1.3,3,3c0,1.6-1.3,3-3,3 s-3-1.3-3-3c0-0.4,0.1-0.8,0.3-1.2l-2.8-2.8h-17v2.5h9.2c0.4-1.1,1.5-1.8,2.7-1.8c1.6,0,3,1.3,3,3s-1.3,3-3,3 c-1.2,0-2.3-0.8-2.7-1.8H8.2v5H51.8z M42.1,21.8c0-0.4-0.3-0.7-0.7-0.7c-0.4,0-0.7,0.3-0.7,0.7c0,0.4,0.3,0.7,0.7,0.7 C41.8,22.5,42.1,22.2,42.1,21.8z M41,31.3c0-0.4-0.3-0.7-0.7-0.7c-0.4,0-0.7,0.3-0.7,0.7c0,0.4,0.3,0.7,0.7,0.7 C40.7,32,41,31.7,41,31.3z M31.4,31.3c0-0.4-0.3-0.7-0.7-0.7s-0.7,0.3-0.7,0.7c0,0.4,0.3,0.7,0.7,0.7C31.1,32,31.4,31.7,31.4,31.3z M30.3,15.6c0-0.4-0.3-0.7-0.7-0.7c-0.4,0-0.7,0.3-0.7,0.7s0.3,0.7,0.7,0.7C30,16.3,30.3,16,30.3,15.6z M21.6,12.3 c0-0.4-0.3-0.7-0.7-0.7s-0.7,0.3-0.7,0.7c0,0.4,0.3,0.7,0.7,0.7S21.6,12.7,21.6,12.3z M20.8,30.9c0-0.4-0.3-0.7-0.7-0.7 c-0.4,0-0.7,0.3-0.7,0.7c0,0.4,0.3,0.7,0.7,0.7C20.5,31.6,20.8,31.3,20.8,30.9z"></path> <path fill="#333333" d="M52.5,52c0.6,0,1.1,0.5,1.1,1.1s-0.5,1.1-1.1,1.1h-3.3c-0.6,0-1.1-0.5-1.1-1.1s0.5-1.1,1.1-1.1H52.5z"></path> <path fill="#007bff" d="M41.3,21.1c0.4,0,0.7,0.3,0.7,0.7c0,0.4-0.3,0.7-0.7,0.7c-0.4,0-0.7-0.3-0.7-0.7 C40.6,21.4,40.9,21.1,41.3,21.1z"></path> <path fill="#007bff" d="M40.3,30.6c0.4,0,0.7,0.3,0.7,0.7c0,0.4-0.3,0.7-0.7,0.7c-0.4,0-0.7-0.3-0.7-0.7S39.9,30.6,40.3,30.6z"></path> <path fill="#007bff" d="M30.6,30.6c0.4,0,0.7,0.3,0.7,0.7c0,0.4-0.3,0.7-0.7,0.7s-0.7-0.3-0.7-0.7S30.2,30.6,30.6,30.6z"></path> <path fill="#007bff" d="M29.6,14.8c0.4,0,0.7,0.3,0.7,0.7s-0.3,0.7-0.7,0.7c-0.4,0-0.7-0.3-0.7-0.7C28.9,15.2,29.2,14.8,29.6,14.8z"></path> <path fill="#333333" d="M26.8,52c0.6,0,1.1,0.5,1.1,1.1s-0.5,1.1-1.1,1.1h-19c-0.6,0-1.1-0.5-1.1-1.1S7.1,52,7.7,52H26.8z"></path> <path fill="#007bff" d="M20.8,11.6c0.4,0,0.7,0.3,0.7,0.7c0,0.4-0.3,0.7-0.7,0.7s-0.7-0.3-0.7-0.7S20.4,11.6,20.8,11.6z"></path> <path fill="#007bff" d="M20.1,30.1c0.4,0,0.7,0.3,0.7,0.7c0,0.4-0.3,0.7-0.7,0.7c-0.4,0-0.7-0.3-0.7-0.7 C19.4,30.5,19.7,30.1,20.1,30.1z"></path> </svg> 