<?xml version="1.0" encoding="UTF-8"?> <!-- Generator: Adobe Illustrator 22.1.0, SVG Export Plug-In . SVG Version: 6.00 Build 0) --> <svg xmlns="http://www.w3.org/2000/svg" xmlns:xlink="http://www.w3.org/1999/xlink" id="Layer_1" x="0px" y="0px" width="60px" height="60px" viewBox="0 0 60 60" xml:space="preserve"> <g id="XMLID_349_"> <g id="XMLID_1945_"> <rect id="XMLID_1946_" x="7.9" y="1.5" fill="#007bff" width="17" height="9.8"></rect> </g> </g> <rect id="XMLID_348_" x="32.2" y="52.2" fill="#007bff" width="10.8" height="6.2"></rect> <rect id="XMLID_347_" x="47.4" y="52.2" fill="#007bff" width="10.8" height="6.2"></rect> <path id="XMLID_205_" fill="#333333" d="M52,25.3c-0.5,0-0.9,0.4-0.9,0.9S51.5,27,52,27h6.1c0.5,0,0.9-0.4,0.9-0.9v-6.2 c0-0.5-0.4-0.9-0.9-0.9h-4.8v-3.2c0-0.5-0.4-0.9-0.9-0.9H17.2v-2.9h7.6c0.5,0,0.9-0.4,0.9-0.9V8.8c0-0.5-0.4-0.9-0.9-0.9 S24,8.3,24,8.8v1.6H11.1L24,2.9v2.4c0,0.5,0.4,0.9,0.9,0.9s0.9-0.4,0.9-0.9V1.5c0-0.5-0.4-0.9-0.9-0.9h-17C7.4,0.6,7,1,7,1.5v9.8 c0,0.5,0.4,0.9,0.9,0.9h7.6V15H7.1c-0.5,0-0.9,0.4-0.9,0.9v3.2H2c-0.5,0-0.9,0.4-0.9,0.9v6.2C1.1,26.6,1.5,27,2,27h4.3v9.3H2 c-0.5,0-0.9,0.4-0.9,0.9v6.2c0,0.5,0.4,0.9,0.9,0.9h10.8c0.5,0,0.9-0.4,0.9-0.9v-6.2c0-0.5-0.4-0.9-0.9-0.9H8V34h13.4v2.3h-4.3 c-0.5,0-0.9,0.4-0.9,0.9v6.2c0,0.5,0.4,0.9,0.9,0.9H19c0.5,0,0.9-0.4,0.9-0.9s-0.4-0.9-0.9-0.9H18V38H27v4.5h-4.5 c-0.5,0-0.9,0.4-0.9,0.9s0.4,0.9,0.9,0.9h5.3c0.5,0,0.9-0.4,0.9-0.9v-6.2c0-0.5-0.4-0.9-0.9-0.9h-4.8V34h13.4v2.3h-4.3 c-0.5,0-0.9,0.4-0.9,0.9v6.2c0,0.5,0.4,0.9,0.9,0.9h4.3v7h-4.3c-0.5,0-0.9,0.4-0.9,0.9v6.2c0,0.5,0.4,0.9,0.9,0.9H43 c0.5,0,0.9-0.4,0.9-0.9v-6.2c0-0.5-0.4-0.9-0.9-0.9h-4.8V49h13.4v2.3h-4.3c-0.5,0-0.9,0.4-0.9,0.9v6.2c0,0.5,0.4,0.9,0.9,0.9h10.8 c0.5,0,0.9-0.4,0.9-0.9v-6.2c0-0.5-0.4-0.9-0.9-0.9h-4.8v-3.2c0-0.5-0.4-0.9-0.9-0.9H38.2v-3H43c0.5,0,0.9-0.4,0.9-0.9v-6.2 c0-0.5-0.4-0.9-0.9-0.9h-4.8v-3.2c0-0.5-0.4-0.9-0.9-0.9H8V27h4.8c0.5,0,0.9-0.4,0.9-0.9V20c0-0.5-0.4-0.9-0.9-0.9H8v-2.3h13.4v2.3 h-4.3c-0.5,0-0.9,0.4-0.9,0.9v6.2c0,0.5,0.4,0.9,0.9,0.9h10.8c0.5,0,0.9-0.4,0.9-0.9V20c0-0.5-0.4-0.9-0.9-0.9h-4.8v-2.3h13.4v2.3 h-4.3c-0.5,0-0.9,0.4-0.9,0.9v6.2c0,0.5,0.4,0.9,0.9,0.9H43c0.5,0,0.9-0.4,0.9-0.9V20c0-0.5-0.4-0.9-0.9-0.9h-4.8v-2.3h13.4v2.3 h-4.3c-0.5,0-0.9,0.4-0.9,0.9v6.2c0,0.5,0.4,0.9,0.9,0.9h1.1c0.5,0,0.9-0.4,0.9-0.9s-0.4-0.9-0.9-0.9h-0.3v-4.5h9.1v4.5L52,25.3 L52,25.3z M8.7,2.3h12.9L8.7,9.8V2.3z M57.3,57.5h-9.1v-1.4h9.1V57.5z M57.3,53v1.4h-9.1V53H57.3z M42.1,57.5h-9.1v-1.4h9.1V57.5z M42.1,53v1.4h-9.1V53H42.1z M42.1,38.1v4.5h-9.1v-4.5H42.1z M11.9,38.1v4.5h-9v-4.5H11.9z M11.9,20.8v4.5h-9v-4.5H11.9z M27,20.8 v4.5h-9.1v-4.5H27z M42.1,20.8v4.5h-9.1v-4.5H42.1z"></path> </svg> 