<?xml version="1.0" encoding="UTF-8"?> <!-- Generator: Adobe Illustrator 22.1.0, SVG Export Plug-In . SVG Version: 6.00 Build 0) --> <svg xmlns="http://www.w3.org/2000/svg" xmlns:xlink="http://www.w3.org/1999/xlink" id="Layer_1" x="0px" y="0px" width="60px" height="60px" viewBox="0 0 60 60" xml:space="preserve"> <g> <path fill="#007bff" d="M41.9,34.6c1.8,0,3.3,1.5,3.3,3.3c0,1.8-1.5,3.3-3.3,3.3s-3.3-1.5-3.3-3.3C38.6,36.1,40,34.6,41.9,34.6z"></path> <path fill="#007bff" d="M30,34.6c1.8,0,3.3,1.5,3.3,3.3c0,1.8-1.5,3.3-3.3,3.3s-3.3-1.5-3.3-3.3C26.7,36.1,28.2,34.6,30,34.6z"></path> <path fill="#007bff" d="M18.1,34.6c1.8,0,3.3,1.5,3.3,3.3c0,1.8-1.5,3.3-3.3,3.3c-1.8,0-3.3-1.5-3.3-3.3 C14.8,36.1,16.3,34.6,18.1,34.6z"></path> <polygon fill="#007bff" points="37.3,52.4 35.9,59 24.1,59 22.7,52.4 "></polygon> </g> <polygon fill="#007bff" points="44.5,13.5 44.5,29.3 40.5,29.3 40.5,18.1 19.5,18.1 19.5,29.3 15.5,29.3 15.5,13.5 "></polygon> <g> <path fill="#231F20" d="M53.9,7.8l-7-7l-4.4,4.4v0l0,0c0,0,0,0,0,0h-7.5V0H25v5.3h-7.5c0,0,0,0,0,0l-4.4-4.4l-7,7l3.1,3.1 c-0.4,1-0.6,2.1-0.6,3.3v30.3c0,4.9,4,8.9,8.9,8.9h4.5l1.3,6.6h13.5l1.3-6.6h4.5c4.9,0,8.9-4,8.9-8.9V14.2c0-1.1-0.2-2.2-0.6-3.3 L53.9,7.8z M35.1,58H24.9L24,53.4H36L35.1,58z M49.5,44.5c0,3.8-3.1,6.9-6.9,6.9H17.5c-3.8,0-6.9-3.1-6.9-6.9V14.2 c0-1.1,0.2-2.1,0.7-3l0.3-0.6L8.9,7.8l4.2-4.2l3,3c0.1,0.1,0.6,0.6,1.4,0.6H30v-2h-3V2H33v5.3h9.6c0.7,0,1.2-0.5,1.4-0.6l3-3 l4.2,4.2l-2.7,2.7l0.3,0.6c0.5,1,0.7,2,0.7,3L49.5,44.5L49.5,44.5z"></path> <path fill="#231F20" d="M45.5,12.5h-31v17.8h31V12.5z M39.6,28.3H20.4v-9.2h19.1L39.6,28.3L39.6,28.3z M43.5,28.3h-2V17.1H18.5 v11.2h-2V14.5h27V28.3L43.5,28.3z"></path> <path fill="#231F20" d="M30,33.6c-2.4,0-4.3,1.9-4.3,4.3c0,2.4,1.9,4.3,4.3,4.3s4.3-1.9,4.3-4.3C34.3,35.6,32.4,33.6,30,33.6z M30,40.2c-1.3,0-2.3-1-2.3-2.3s1-2.3,2.3-2.3s2.3,1,2.3,2.3C32.3,39.2,31.3,40.2,30,40.2z"></path> <path fill="#231F20" d="M41.9,33.6c-2.4,0-4.3,1.9-4.3,4.3c0,2.4,1.9,4.3,4.3,4.3s4.3-1.9,4.3-4.3C46.1,35.6,44.2,33.6,41.9,33.6z M41.9,40.2c-1.3,0-2.3-1-2.3-2.3s1-2.3,2.3-2.3s2.3,1,2.3,2.3C44.2,39.2,43.1,40.2,41.9,40.2z"></path> <path fill="#231F20" d="M22.4,37.9c0-2.4-1.9-4.3-4.3-4.3s-4.3,1.9-4.3,4.3c0,2.4,1.9,4.3,4.3,4.3S22.4,40.3,22.4,37.9z M18.1,40.2 c-1.3,0-2.3-1-2.3-2.3s1-2.3,2.3-2.3c1.3,0,2.3,1,2.3,2.3C20.4,39.2,19.4,40.2,18.1,40.2z"></path> <rect x="26.7" y="45.5" fill="#231F20" width="6.6" height="2"></rect> <rect x="35.9" y="45.5" fill="#231F20" width="3.3" height="2"></rect> <rect x="20.8" y="45.5" fill="#231F20" width="3.3" height="2"></rect> </g> </svg> 