<?xml version="1.0" encoding="UTF-8"?> <!-- Generator: Adobe Illustrator 22.1.0, SVG Export Plug-In . SVG Version: 6.00 Build 0) --> <svg xmlns="http://www.w3.org/2000/svg" xmlns:xlink="http://www.w3.org/1999/xlink" id="Capa_1" x="0px" y="0px" width="60px" height="60px" viewBox="0 0 60 60" xml:space="preserve"> <g> <polyline fill="#007bff" points="22,22 10,22 22.4,16.3 "></polyline> <polyline fill="#007bff" points="21,40 9,40 21.3,34.3 "></polyline> <polyline fill="#007bff" points="37.6,16.3 50,22 38,22 "></polyline> <polyline fill="#007bff" points="38.7,34.3 51,40 39,40 "></polyline> </g> <path fill="#007bff" d="M3,53h54c1.1,0,2,0.9,2,2v2c0,1.1-0.9,2-2,2H3c-1.1,0-2-0.9-2-2v-2C1,53.9,1.9,53,3,53z"></path> <polygon fill="#007bff" points="35.2,25 30,30.5 22,22 35,22 "></polygon> <g> <path fill="#007bff" d="M34,8H23l4.4-6.2c0.3-0.4,0.7-0.6,1.1-0.8c0.4,0.1,0.8,0.4,1.1,0.8L34,8z"></path> <polygon fill="#007bff" points="39,40 30,44.5 21,40 "></polygon> </g> <g> <polygon fill="#007bff" points="36,40 21,40 30,30.5 35.8,36.6 "></polygon> <polygon fill="#007bff" points="35,22 22,22 30,14.5 34.8,19 "></polygon> <polygon fill="#007bff" points="34.2,10.6 30,14.5 23,8 34,8 "></polygon> </g> <g> <path fill="#007bff" d="M37,8l-2.8,2.6L34,8l-4.4-6.2c-0.3-0.4-0.7-0.6-1.1-0.8c0.1,0,0.2,0,0.3-0.1c0.1,0,0.2,0,0.3,0H31 c0.6,0,1.3,0.3,1.6,0.8L37,8z"></path> <polygon fill="#007bff" points="38,22 35.2,25 35,22 34.8,19 "></polygon> </g> <polygon fill="#007bff" points="39,40 36,40 35.8,36.6 "></polygon> <path fill="#333333" d="M57,52h-9.4l-6.8-11H50v3c0,0.6,0.4,1,1,1c0.6,0,1-0.4,1-1v-4c0,0,0,0,0-0.1c0-0.1,0-0.2,0-0.2 c0,0,0-0.1,0-0.1c0-0.1-0.1-0.2-0.2-0.3c0,0,0,0,0,0c-0.1-0.1-0.2-0.2-0.3-0.2l-11.8-5.4L39,23H49v3c0,0.6,0.4,1,1,1s1-0.4,1-1v-4 c0,0,0,0,0-0.1c0-0.1,0-0.2,0-0.2c0-0.1-0.1-0.3-0.2-0.4c0,0,0,0,0,0c-0.1-0.1-0.2-0.2-0.3-0.2l0,0l0,0l-11.8-5.5L38,7.9 c0,0,0,0,0-0.1c0,0,0-0.1,0-0.1c0,0,0-0.1,0-0.1c0,0,0-0.1-0.1-0.1c0,0,0,0,0-0.1l-4.4-6.2C32.8,0.5,31.9,0,31,0H29 c-1,0-1.9,0.5-2.4,1.3l-4.4,6.2c0,0,0,0,0,0.1c0,0,0,0.1-0.1,0.1c0,0,0,0.1,0,0.1c0,0,0,0.1,0,0.1c0,0,0,0,0,0.1l-0.6,7.7L9.6,21.1 c-0.1,0-0.2,0.1-0.3,0.2c0,0,0,0,0,0c-0.1,0.1-0.2,0.2-0.2,0.4c0,0.1,0,0.2,0,0.2c0,0,0,0,0,0.1v4c0,0.6,0.4,1,1,1c0.6,0,1-0.4,1-1 v-3h9.9l-0.6,10.7L8.6,39.1c-0.1,0-0.2,0.1-0.3,0.2c0,0,0,0,0,0c-0.1,0.1-0.2,0.2-0.2,0.4c0,0.1,0,0.2,0,0.2c0,0,0,0,0,0.1v4 c0,0.6,0.4,1,1,1c0.6,0,1-0.4,1-1v-3h9.2l-6.8,11H3c-1.7,0-3,1.3-3,3v2c0,1.7,1.3,3,3,3h54c1.7,0,3-1.3,3-3v-2 C60,53.3,58.7,52,57,52z M37.7,34.3L37.7,34.3l0.2,3l-6.5-6.9l5.8-6.1L37.7,34.3z M36.7,39H23.3l6.7-7.1L36.7,39z M35.7,23L30,29 l-5.7-6H35.7z M24.5,21l5.5-5.1l5.5,5.1H24.5L24.5,21z M31.5,14.5l4.7-4.4l0.7,9.4L31.5,14.5z M30,13.2L25.5,9h8.9L30,13.2z M23.8,10.2l4.7,4.4l-5.4,5L23.8,10.2z M22.3,34.3L22.3,34.3l0.6-9.9l5.8,6.1l-6.5,6.9L22.3,34.3z M34.8,41L30,43.4L25.2,41L34.8,41 L34.8,41z M38.6,41.3l5.7,9.2l-12.1-6L38.6,41.3z M46.4,39h-6.5l-0.2-3.1L46.4,39z M45.4,21h-6.5l-0.2-3.1L45.4,21z M28.2,2.4 C28.4,2.2,28.7,2,29,2H31c0.3,0,0.6,0.2,0.8,0.4L35.1,7H24.9L28.2,2.4z M21.3,17.9L21.1,21h-6.5L21.3,17.9z M20.2,35.9L20.1,39h-6.5 L20.2,35.9z M21.4,41.3l6.4,3.2l-12.1,6L21.4,41.3z M30,45.6L42.8,52H17.2L30,45.6z M58,57c0,0.6-0.4,1-1,1H3c-0.6,0-1-0.4-1-1v-2 c0-0.6,0.4-1,1-1h54c0.6,0,1,0.4,1,1V57L58,57z"></path> </svg> 