<?xml version="1.0" encoding="UTF-8"?> <!-- Generator: Adobe Illustrator 22.1.0, SVG Export Plug-In . SVG Version: 6.00 Build 0) --> <svg xmlns="http://www.w3.org/2000/svg" xmlns:xlink="http://www.w3.org/1999/xlink" id="Layer_1" x="0px" y="0px" width="60px" height="60px" viewBox="0 0 60 60" xml:space="preserve"> <g> <path fill="#007bff" d="M49.5,19.8c-0.9,0-1.6-0.7-1.6-1.6v-4.9c0-0.9,0.7-1.6,1.6-1.6s1.6,0.7,1.6,1.6v4.9 C51.1,19.1,50.4,19.8,49.5,19.8z"></path> <path fill="#007bff" d="M49.5,48.2c-0.9,0-1.6-0.7-1.6-1.6v-4.9c0-0.9,0.7-1.6,1.6-1.6s1.6,0.7,1.6,1.6v4.9 C51.1,47.5,50.4,48.2,49.5,48.2z"></path> <circle fill="#007bff" cx="15.9" cy="44.2" r="2"></circle> </g> <polygon fill="#007bff" points="41.8,32.4 18.2,32.4 30,12.1 30,12.1 "></polygon> <g> <path fill="#333333" d="M54.5,29.7c0.5,0,0.9-0.4,0.9-0.9V2.5c0-1.4-1.1-2.5-2.5-2.5H7.1C5.7,0,4.6,1.1,4.6,2.5v55.1 c0,1.4,1.1,2.5,2.5,2.5h45.9c1.4,0,2.5-1.1,2.5-2.5V31.8c0-0.5-0.4-0.9-0.9-0.9s-0.9,0.4-0.9,0.9v25.7c0,0.3-0.3,0.6-0.6,0.6H7.1 c-0.3,0-0.6-0.3-0.6-0.6V2.5c0-0.3,0.3-0.6,0.6-0.6h45.9c0.3,0,0.6,0.3,0.6,0.6v26.3C53.5,29.3,53.9,29.7,54.5,29.7z"></path> <path fill="#333333" d="M52,18.3v-4.9c0-1.1-0.7-2-1.6-2.3V5.8c0-0.5-0.4-0.9-0.9-0.9h-39c-0.5,0-0.9,0.4-0.9,0.9v48.3 c0,0.5,0.4,0.9,0.9,0.9h7.2c0.5,0,0.9-0.4,0.9-0.9s-0.4-0.9-0.9-0.9h-6.3V6.8h37.1V11c0,0,0,0,0,0c0,0,0,0,0,0c0,0-0.1,0-0.2,0.1 c0,0,0,0-0.1,0c0,0-0.1,0.1-0.1,0.1c0,0,0,0,0,0c-0.1,0-0.1,0.1-0.2,0.1c0,0,0,0,0,0c0,0-0.1,0.1-0.1,0.1c0,0,0,0,0,0 c0,0-0.1,0.1-0.1,0.1c0,0,0,0,0,0c0,0.1-0.1,0.1-0.1,0.2c0,0,0,0,0,0c0,0-0.1,0.1-0.1,0.2c0,0,0,0,0,0.1c0,0,0,0.1-0.1,0.2 c0,0,0,0,0,0.1c0,0.1-0.1,0.1-0.1,0.2c0,0,0,0,0,0c0,0.1,0,0.1,0,0.2c0,0,0,0,0,0.1c0,0.1,0,0.1,0,0.2c0,0,0,0,0,0.1 c0,0.1,0,0.2,0,0.2v4.9c0,0.1,0,0.2,0,0.2c0,0,0,0,0,0.1c0,0.1,0,0.1,0,0.2c0,0,0,0,0,0.1c0,0.1,0,0.1,0,0.2c0,0,0,0,0,0 c0,0.1,0,0.1,0.1,0.2c0,0,0,0,0,0.1c0,0,0,0.1,0.1,0.2c0,0,0,0,0,0.1c0,0,0.1,0.1,0.1,0.2c0,0,0,0,0,0c0,0.1,0.1,0.1,0.1,0.2 c0,0,0,0,0,0c0,0,0.1,0.1,0.1,0.1c0,0,0,0,0,0c0,0,0.1,0.1,0.1,0.1c0,0,0,0,0,0c0.1,0,0.1,0.1,0.2,0.1c0,0,0,0,0,0 c0,0,0.1,0.1,0.1,0.1c0,0,0,0,0.1,0c0,0,0.1,0,0.2,0.1c0,0,0,0,0,0c0,0,0,0,0,0v18.8c0,0,0,0,0,0c0,0,0,0,0,0c0,0-0.1,0-0.2,0.1 c0,0,0,0-0.1,0c0,0-0.1,0.1-0.1,0.1c0,0,0,0,0,0c-0.1,0-0.1,0.1-0.2,0.1c0,0,0,0,0,0c0,0-0.1,0.1-0.1,0.1c0,0,0,0,0,0 c0,0-0.1,0.1-0.1,0.1c0,0,0,0,0,0c0,0.1-0.1,0.1-0.1,0.2c0,0,0,0,0,0c0,0-0.1,0.1-0.1,0.2c0,0,0,0,0,0.1c0,0,0,0.1-0.1,0.2 c0,0,0,0,0,0.1c0,0.1-0.1,0.1-0.1,0.2c0,0,0,0,0,0c0,0.1,0,0.1,0,0.2c0,0,0,0,0,0.1c0,0.1,0,0.1,0,0.2c0,0,0,0,0,0.1 c0,0.1,0,0.2,0,0.2v4.9c0,0.1,0,0.2,0,0.2c0,0,0,0,0,0.1c0,0.1,0,0.1,0,0.2c0,0,0,0,0,0.1c0,0.1,0,0.1,0,0.2c0,0,0,0,0,0 c0,0.1,0,0.1,0.1,0.2c0,0,0,0,0,0.1c0,0,0,0.1,0.1,0.2c0,0,0,0,0,0.1c0,0,0.1,0.1,0.1,0.2c0,0,0,0,0,0c0,0.1,0.1,0.1,0.1,0.2 c0,0,0,0,0,0c0,0,0.1,0.1,0.1,0.1c0,0,0,0,0,0c0,0,0.1,0.1,0.1,0.1c0,0,0,0,0,0c0.1,0,0.1,0.1,0.2,0.1c0,0,0,0,0,0 c0,0,0.1,0.1,0.1,0.1c0,0,0,0,0.1,0c0,0,0.1,0,0.2,0.1c0,0,0,0,0,0c0,0,0,0,0,0v4.2H20.9c-0.5,0-0.9,0.4-0.9,0.9s0.4,0.9,0.9,0.9 h28.6c0.5,0,0.9-0.4,0.9-0.9v-5.1c0.9-0.4,1.6-1.3,1.6-2.3v-4.9c0-1.1-0.7-2-1.6-2.3V20.6C51.4,20.2,52,19.3,52,18.3z M50.1,13.3 v4.9c0,0.4-0.3,0.6-0.6,0.6s-0.6-0.3-0.6-0.6v-4.9c0-0.4,0.3-0.6,0.6-0.6S50.1,13,50.1,13.3z M50.1,41.7v4.9c0,0.4-0.3,0.6-0.6,0.6 s-0.6-0.3-0.6-0.6v-4.9c0-0.4,0.3-0.6,0.6-0.6S50.1,41.4,50.1,41.7z"></path> <path fill="#333333" d="M38.8,39.3H21.2c-0.5,0-0.9,0.4-0.9,0.9s0.4,0.9,0.9,0.9h17.5c0.5,0,0.9-0.4,0.9-0.9S39.3,39.3,38.8,39.3z"></path> <path fill="#333333" d="M38.8,43.3H21.2c-0.5,0-0.9,0.4-0.9,0.9s0.4,0.9,0.9,0.9h17.5c0.5,0,0.9-0.4,0.9-0.9S39.3,43.3,38.8,43.3z"></path> <path fill="#333333" d="M38.8,47.3H21.2c-0.5,0-0.9,0.4-0.9,0.9s0.4,0.9,0.9,0.9h17.5c0.5,0,0.9-0.4,0.9-0.9S39.3,47.3,38.8,47.3z"></path> <path fill="#333333" d="M41.8,33.4c0.5,0,0.9-0.4,0.9-0.9c0-0.2-0.1-0.4-0.2-0.5L30.8,11.6c-0.2-0.3-0.5-0.5-0.8-0.5 c-0.3,0-0.6,0.2-0.8,0.5L17.4,31.9c-0.2,0.3-0.2,0.7,0,0.9c0.2,0.3,0.5,0.5,0.8,0.5H41.8L41.8,33.4z M19.8,31.5L30,14l10.2,17.4 H19.8z"></path> <path fill="#333333" d="M28.9,21.1L27.3,25c-0.1,0.3-0.1,0.6,0.1,0.9c0.2,0.3,0.5,0.4,0.8,0.4h1.5l-0.8,1.8c-0.2,0.5,0,1,0.5,1.2 c0.1,0.1,0.2,0.1,0.4,0.1c0.4,0,0.7-0.2,0.9-0.6l1.4-3.2c0.1-0.3,0.1-0.6-0.1-0.9c-0.2-0.3-0.5-0.4-0.8-0.4h-1.5l1-2.6 c0.2-0.5,0-1-0.5-1.2C29.6,20.4,29.1,20.6,28.9,21.1z"></path> <path fill="#333333" d="M15.9,41.3c-1.6,0-2.9,1.3-2.9,2.9c0,1.6,1.3,2.9,2.9,2.9s2.9-1.3,2.9-2.9C18.8,42.6,17.5,41.3,15.9,41.3z M15.9,45.2c-0.6,0-1-0.5-1-1c0-0.6,0.5-1,1-1c0.6,0,1,0.5,1,1C16.9,44.8,16.5,45.2,15.9,45.2z"></path> </g> </svg> 