<?xml version="1.0" encoding="UTF-8"?> <!-- Generator: Adobe Illustrator 22.1.0, SVG Export Plug-In . SVG Version: 6.00 Build 0) --> <svg xmlns="http://www.w3.org/2000/svg" xmlns:xlink="http://www.w3.org/1999/xlink" id="Capa_1" x="0px" y="0px" width="56px" height="56px" viewBox="0 0 56 56" xml:space="preserve"> <g> <rect x="39.6" y="10.7" fill="#007bff" width="12.9" height="6.6"></rect> <rect x="46" y="21.4" fill="#007bff" width="6.2" height="6.6"></rect> <rect x="3.5" y="29.2" fill="#007bff" width="4.7" height="6.6"></rect> <rect x="43.3" y="37.6" fill="#007bff" width="4.7" height="6.6"></rect> </g> <path fill="#007bff" d="M17.1,49.7h21.9V33.9C38.9,27.9,34,23,28,23l0,0c-6,0-10.9,4.9-10.9,10.9V49.7z"></path> <rect x="3.5" y="10.7" fill="#007bff" width="12.9" height="6.6"></rect> <path fill="#333333" d="M56,1.1C56,0.5,55.5,0,54.9,0H1.1C0.5,0,0,0.5,0,1.1v5.3c0,0.2,0,0.4,0.1,0.5l0,0L2.4,11v6.3v31.3H1.1 c-0.6,0-1.1,0.5-1.1,1.1v5.3C0,55.5,0.5,56,1.1,56h53.8c0.6,0,1.1-0.5,1.1-1.1v-5.3c0-0.6-0.5-1.1-1.1-1.1h-1.3v-8.1 c0-0.6-0.5-1.1-1.1-1.1s-1.1,0.5-1.1,1.1v8.1h-7v-3.3H48c0.6,0,1.1-0.5,1.1-1.1v-6.6c0-0.6-0.5-1.1-1.1-1.1h-3.6v-2.6 c0-9-7.4-16.4-16.4-16.4s-16.4,7.4-16.4,16.4v14.7h-7V36.8h3.6c0.6,0,1.1-0.5,1.1-1.1v-6.6c0-0.6-0.5-1.1-1.1-1.1H4.6v-9.7h11.8 c0.6,0,1.1-0.5,1.1-1.1v-5.5h21v5.5c0,0.6,0.5,1.1,1.1,1.1h11.8v2H46c-0.6,0-1.1,0.5-1.1,1.1V28c0,0.6,0.5,1.1,1.1,1.1h5.4V32 c0,0.6,0.5,1.1,1.1,1.1s1.1-0.5,1.1-1.1V11l2.3-4.1l0,0C56,6.7,56,6.5,56,6.4V1.1z M46.9,38.7v4.4h-2.5v-4.4H46.9z M13.8,33.9 c0-7.8,6.4-14.2,14.2-14.2s14.2,6.4,14.2,14.2v14.7H40V33.9c0-6.6-5.4-12-12-12s-12,5.4-12,12v14.7h-2.2V33.9z M33.4,48.6H22.6 M20.3,48.6h-2.1V33.9c0-5.4,4.4-9.8,9.8-9.8s9.8,4.4,9.8,9.8v14.7h-2.1 M53.8,50.8v3.1H2.2v-3.1H53.8z M2.2,2.2h51.6v3.1H33.5 c-0.6,0-1.1,0.5-1.1,1.1s0.5,1.1,1.1,1.1h19.5l-1.2,2.2H16.4H4.1L2.9,7.4h20.3c0.6,0,1.1-0.5,1.1-1.1s-0.5-1.1-1.1-1.1h-21V2.2z M7.1,30.3v4.4H4.6v-4.4H7.1z M15.3,16.2H4.6v-4.4h10.7V16.2z M40.7,16.2v-4.4h10.7v4.4H40.7z M47.1,26.9v-4.4h4.3v4.4H47.1z"></path> <path fill="#333333" d="M28.3,7.4c0.3,0,0.6-0.1,0.8-0.3c0.2-0.2,0.3-0.5,0.3-0.8s-0.1-0.6-0.3-0.8c-0.2-0.2-0.5-0.3-0.8-0.3 c-0.3,0-0.6,0.1-0.8,0.3c-0.2,0.2-0.3,0.5-0.3,0.8s0.1,0.6,0.3,0.8C27.8,7.3,28.1,7.4,28.3,7.4z"></path> <path fill="#333333" d="M52.5,35.2c-0.3,0-0.6,0.1-0.8,0.3c-0.2,0.2-0.3,0.5-0.3,0.8s0.1,0.6,0.3,0.8c0.2,0.2,0.5,0.3,0.8,0.3 s0.6-0.1,0.8-0.3c0.2-0.2,0.3-0.5,0.3-0.8s-0.1-0.6-0.3-0.8C53.1,35.3,52.8,35.2,52.5,35.2z"></path> </svg> 