<?xml version="1.0" encoding="UTF-8"?> <!-- Generator: Adobe Illustrator 22.1.0, SVG Export Plug-In . SVG Version: 6.00 Build 0) --> <svg xmlns="http://www.w3.org/2000/svg" xmlns:xlink="http://www.w3.org/1999/xlink" id="Capa_1" x="0px" y="0px" width="60px" height="60px" viewBox="0 0 60 60" xml:space="preserve"> <path fill="#333333" d="M57.9,25.4c0.3,0.3,0.4,0.8,0.3,1.2c-0.2,0.4-0.5,0.7-1,0.7h-6.3V59c0,0.6-0.5,1-1,1H10.2c-0.6,0-1-0.5-1-1 V27.2H2.9c-0.4,0-0.8-0.3-1-0.7c-0.2-0.4-0.1-0.9,0.3-1.2L29.3,0.4c0.4-0.4,1-0.4,1.4,0L57.9,25.4z M49.8,25.1h4.7L39.4,11.3v2.7 c0,0.3-0.1,0.5-0.3,0.7L35.8,18c0.2,0.4,0.2,0.8,0.2,1.2c0,1.6-1.3,3-3,3c-1.6,0-3-1.3-3-3s1.3-3,3-3c0.5,0,0.9,0.1,1.3,0.3l3-3V9.3 L31,3.6v4.3c1.1,0.4,1.9,1.5,1.9,2.8c0,1.6-1.3,3-3,3s-3-1.3-3-3c0-1.3,0.8-2.4,1.9-2.8V3.6l-4,3.7v9.1c1.1,0.4,1.9,1.5,1.9,2.8 c0,1.6-1.3,3-3,3s-3-1.3-3-3c0-1.3,0.8-2.4,1.9-2.8V9.2L5.5,25.1h4.7c0.6,0,1,0.5,1,1v31.8h2.6V26.1c0-0.6,0.5-1,1-1h30.2 c0.6,0,1,0.5,1,1v31.8h2.6V26.1C48.7,25.6,49.2,25.1,49.8,25.1z M44.1,57.9v-4.5H15.9v4.5H44.1z M44.1,51.3v-4.5H15.9v4.5H44.1z M44.1,44.8v-4.5H15.9v4.5H44.1z M44.1,38.2v-4.5H15.9v4.5H44.1z M44.1,31.6v-4.5H15.9v4.5H44.1z M33.9,19.2c0-0.5-0.4-0.9-0.9-0.9 c-0.5,0-0.9,0.4-0.9,0.9s0.4,0.9,0.9,0.9C33.5,20.1,33.9,19.7,33.9,19.2z M30.9,10.6c0-0.5-0.4-0.9-0.9-0.9s-0.9,0.4-0.9,0.9 s0.4,0.9,0.9,0.9S30.9,11.1,30.9,10.6z M24.8,19.2c0-0.5-0.4-0.9-0.9-0.9S23,18.7,23,19.2s0.4,0.9,0.9,0.9S24.8,19.7,24.8,19.2z"></path> <path fill="#007bff" d="M54.5,25.1h-4.7c-0.6,0-1,0.5-1,1v31.8h-2.6V26.1c0-0.6-0.5-1-1-1H14.9c-0.6,0-1,0.5-1,1v31.8h-2.6V26.1 c0-0.6-0.5-1-1-1H5.5L22.8,9.2v7.2c-1.1,0.4-1.9,1.5-1.9,2.8c0,1.6,1.3,3,3,3s3-1.3,3-3c0-1.3-0.8-2.4-1.9-2.8V7.3l4-3.7v4.3 C27.8,8.3,27,9.3,27,10.6c0,1.6,1.3,3,3,3s3-1.3,3-3c0-1.3-0.8-2.4-1.9-2.8V3.6l6.2,5.7v4.2l-3,3c-0.4-0.2-0.8-0.3-1.3-0.3 c-1.6,0-3,1.3-3,3s1.3,3,3,3s3-1.3,3-3c0-0.4-0.1-0.8-0.2-1.2l3.3-3.3c0.2-0.2,0.3-0.5,0.3-0.7v-2.7L54.5,25.1z"></path> </svg> 