<?xml version="1.0" encoding="UTF-8"?> <!-- Generator: Adobe Illustrator 22.1.0, SVG Export Plug-In . SVG Version: 6.00 Build 0) --> <svg xmlns="http://www.w3.org/2000/svg" xmlns:xlink="http://www.w3.org/1999/xlink" id="Capa_1" x="0px" y="0px" width="60px" height="60px" viewBox="0 0 60 60" xml:space="preserve"> <polygon fill="#007bff" points="10,59 10,49 26,49 26,59 32,59 32,43 35,43 18,34 1,43 4,43 4,59 "></polygon> <path fill="#333333" d="M4,40.3l-3.5,1.8c-0.5,0.3-0.7,0.9-0.4,1.3C0.3,43.8,0.6,44,1,44h2v15c0,0.5,0.5,1,1,1h28c0.5,0,1-0.5,1-1 V44h2c0.5,0,0.9-0.3,1-0.8s-0.1-0.9-0.5-1.1l-17-9c-0.3-0.2-0.6-0.2-0.9,0L13,35.5 M11,36.6l-5,2.7 M25,58H11v-8h14V58z M31,43v15 h-4v-9c0-0.5-0.5-1-1-1H10c-0.6,0-1,0.5-1,1v9H5V43c0-0.3-0.1-0.6-0.4-0.8L18,35.1l13.4,7.1C31.2,42.4,31,42.7,31,43z"></path> <path fill="#333333" d="M59.9,11.6l-3-6C56.7,5.2,56.4,5,56,5h-4.4L51,0.9C50.9,0.4,50.5,0,50,0h-6c-0.5,0-0.9,0.4-1,0.9L42.5,5H38 c-0.4,0-0.7,0.2-0.9,0.6l-3,6C34.1,11.7,34,11.8,34,12l0,0v4h2v-3h5.3L35,58.9c-0.1,0.5,0.3,1,0.8,1.1c0,0,0.1,0,0.1,0h22 c0.5,0,1-0.5,1-1c0,0,0-0.1,0-0.1L52.7,13H58v3h2v-4l0,0C60,11.9,60,11.7,59.9,11.6z M44.2,11l2.9-3.5l3.5,3.5H44.2z M42.1,10.3 L39.9,7h5L42.1,10.3z M49.4,7h5l-1.7,3.3L49.4,7z M48.8,5l0.6-1l0.1,1H48.8z M47,4.1L45.8,2h2.5L47,4.1z M44.6,4l0.6,1h-0.8L44.6,4z M38.1,8l2,3h-3.5L38.1,8z M41.7,25.1l3.6,0l-4.7,8.2L41.7,25.1z M47,37l-6.4,0.1L47,26l6.4,11.1L47,37z M47,23l-4.1,0.1l4.1-5.4 l4.1,5.4L47,23z M39.8,39.2l5.6-0.1l-7.5,14.4L39.8,39.2z M47,40.2L56.4,58H37.7L47,40.2z M48.7,39l5.6,0.1l2,14.3L48.7,39z M48.8,25l3.6,0l1.1,8.1L48.8,25z M51.7,20.5L49,17h2.2L51.7,20.5z M42.3,20.5l0.5-3.5H45L42.3,20.5z M50.9,15h-7.8l0.3-2h7.3 L50.9,15z M54.6,11L56,8.2l1.4,2.8H54.6z"></path> <path fill="#333333" d="M23,26v8h2v-7h12v-2H24C23.5,25,23,25.5,23,26z"></path> <rect x="13" y="44" fill="#333333" width="10" height="2"></rect> </svg> 