<?xml version="1.0" encoding="UTF-8"?> <!-- Generator: Adobe Illustrator 22.1.0, SVG Export Plug-In . SVG Version: 6.00 Build 0) --> <svg xmlns="http://www.w3.org/2000/svg" xmlns:xlink="http://www.w3.org/1999/xlink" id="Capa_1" x="0px" y="0px" width="60px" height="60px" viewBox="0 0 60 60" xml:space="preserve"> <g> <path fill="#007bff" d="M44.6,40.7l-2.9-0.6c-0.1-0.3-0.2-0.5-0.3-0.8l1.7-2.4c0.3-0.4,0.2-0.9-0.1-1.2l-4.1-4.1 c-0.3-0.3-0.8-0.4-1.2-0.1l-2.4,1.7c-0.3-0.1-0.5-0.2-0.8-0.3c-1.1,1.3-2.7,2.1-4.4,2.1s-3.4-0.8-4.4-2.1c-0.3,0.1-0.5,0.2-0.8,0.3 l-2.4-1.7c-0.4-0.3-0.9-0.2-1.2,0.1L17,35.7c-0.3,0.3-0.4,0.8-0.1,1.2l1.7,2.4c-0.1,0.3-0.2,0.5-0.3,0.8l-2.9,0.6 c-0.5,0.1-0.8,0.5-0.8,1v5.8c0,0.5,0.3,0.9,0.8,1l2.9,0.6c0.1,0.3,0.2,0.5,0.3,0.8l-1.7,2.4c-0.3,0.4-0.2,0.9,0.1,1.2l4.1,4.1 c0.3,0.3,0.8,0.4,1.2,0.1l2.4-1.7c0.3,0.1,0.5,0.2,0.8,0.3l0.6,2.9c0.1,0.5,0.5,0.8,1,0.8h5.8c0.5,0,0.9-0.3,1-0.8l0.6-2.9 c0.3-0.1,0.5-0.2,0.8-0.3l2.4,1.7c0.4,0.3,0.9,0.2,1.2-0.1l4.1-4.1c0.3-0.3,0.4-0.8,0.1-1.2l-1.7-2.4c0.1-0.3,0.2-0.5,0.3-0.8 l2.9-0.6c0.5-0.1,0.8-0.5,0.8-1v-5.8C45.4,41.2,45.1,40.8,44.6,40.7z M30,50.3c-3.2,0-5.8-2.6-5.8-5.8s2.6-5.8,5.8-5.8 s5.8,2.6,5.8,5.8S33.2,50.3,30,50.3z"></path> <circle fill="#007bff" cx="30" cy="12.7" r="8.7"></circle> </g> <path fill="#333333" d="M30,37.8c-3.7,0-6.7,3-6.7,6.7s3,6.7,6.7,6.7s6.7-3,6.7-6.7S33.7,37.8,30,37.8z M30,49.4 c-2.7,0-4.8-2.2-4.8-4.8c0-2.7,2.2-4.8,4.8-4.8s4.8,2.2,4.8,4.8C34.8,47.2,32.7,49.4,30,49.4z"></path> <rect x="4" y="31.1" fill="#333333" width="5.8" height="1.9"></rect> <rect x="4" y="34.9" fill="#333333" width="5.8" height="1.9"></rect> <rect x="50.2" y="31.1" fill="#333333" width="5.8" height="1.9"></rect> <rect x="50.2" y="34.9" fill="#333333" width="5.8" height="1.9"></rect> <path fill="#333333" d="M54.1,17.6H41.5c0.5-1.2,0.8-2.5,0.9-3.9h12.6c2.7,0,4.8-2.2,4.8-4.8s-2.2-4.8-4.8-4.8H39 c-0.1-0.1-0.2-0.2-0.3-0.3c-2.5-2.4-5.7-3.6-9.2-3.5c-3.3,0.1-6.3,1.6-8.5,3.8H8.6l-7,2.6C0.7,7,0.1,7.9,0.1,8.9s0.6,1.9,1.5,2.2 l7,2.6h8.9c0.1,1.3,0.4,2.6,0.9,3.9H5.9v9.6H0.1v13.5h13.5V27.2H7.8v-7.7h11.6v-0.1c1,1.6,2.3,2.9,3.9,3.9v1h-1.9v1.9h1.9v1.9h-1.9 v1.9h2c0.5,3.3,3.3,5.8,6.7,5.8s6.2-2.5,6.7-5.8h2v-1.9h-1.9v-1.9h1.9v-1.9h-1.9v-1c1.6-1,2.9-2.4,3.9-3.9v0.1h11.6v7.7h-5.8v13.5 h13.5V27.2h-5.8V17.6z M11.7,38.8H2v-9.6h9.6V38.8z M42.2,9.9h4.2v1.9h-3.9C42.4,11.1,42.3,10.5,42.2,9.9z M48.3,6h1.9v5.8h-1.9V6z M58,8.9c0,1.6-1.3,2.9-2.9,2.9h-2.9V6h2.9C56.7,6,58,7.3,58,8.9z M46.4,6v1.9h-4.8c-0.3-0.7-0.6-1.3-1-1.9C40.6,6,46.4,6,46.4,6z M9.8,9.9h8.1c-0.2,0.6-0.3,1.3-0.3,1.9H9.8V9.9z M9.8,7.9V6h9.7c-0.4,0.6-0.8,1.3-1.1,2V7.9H9.8z M2,8.9c0-0.2,0.1-0.3,0.3-0.4 l5.5-2.1v4.9L2.3,9.3C2.2,9.2,2,9.1,2,8.9z M30,34c-2.3,0-4.3-1.7-4.7-3.9h9.4C34.3,32.3,32.3,34,30,34z M34.8,28.2h-9.6v-1.9h9.6 V28.2z M27.1,14.7h-1.9c-1.1,0-1.9-0.9-1.9-1.9s0.9-1.9,1.9-1.9c1.1,0,1.9,0.9,1.9,1.9V14.7z M31,24.3H29v-7.7H31V24.3z M35.3,21.9 l-0.5,0.3v2.1h-1.9v-7.7h1.9c2.1,0,3.9-1.7,3.9-3.9s-1.7-3.9-3.9-3.9c-2.1,0-3.9,1.7-3.9,3.9v1.9H29v-1.9c0-2.1-1.7-3.9-3.9-3.9 s-3.9,1.7-3.9,3.9s1.7,3.9,3.9,3.9h1.9v7.7h-1.9v-2.1l-0.5-0.3c-3.4-1.9-5.4-5.6-5.3-9.4C19.5,7,24.1,2.4,29.6,2.1 c0.1,0,0.3,0,0.4,0c2.8,0,5.3,1,7.3,3c2.1,2,3.3,4.7,3.3,7.6C40.6,16.5,38.6,20,35.3,21.9z M32.9,14.7v-1.9c0-1.1,0.9-1.9,1.9-1.9 c1.1,0,1.9,0.9,1.9,1.9s-0.9,1.9-1.9,1.9H32.9z M58,38.8h-9.6v-9.6H58V38.8z"></path> </svg> 