<?xml version="1.0" encoding="UTF-8"?> <!-- Generator: Adobe Illustrator 22.1.0, SVG Export Plug-In . SVG Version: 6.00 Build 0) --> <svg xmlns="http://www.w3.org/2000/svg" xmlns:xlink="http://www.w3.org/1999/xlink" id="Capa_1" x="0px" y="0px" width="60px" height="60px" viewBox="0 0 60 60" xml:space="preserve"> <path fill="#007bff" d="M31.9,3c0-1.1-0.9-2-2-2c-1.1,0-2,0.9-2,2v2h4L31.9,3L31.9,3z"></path> <g> <path fill="#007bff" d="M29.9,44h10l6-25h-16V44z M37.9,23h2.9l-4.1,17l4.1-17L37.9,23L37.9,23z"></path> <path fill="#007bff" d="M29.9,19h-16l6,25h10V19L29.9,19z M19,23L19,23l4.1,17L19,23z"></path> </g> <rect x="27.9" y="53" fill="#007bff" width="4" height="6"></rect> <path fill="#333333" d="M51.4,18.2L35.9,8.4V7c0-1.7-1.3-3-3-3V3c0-1.7-1.3-3-3-3c-1.7,0-3,1.3-3,3v1c-1.7,0-3,1.3-3,3v1.4L8.4,18.2 c-0.5,0.3-0.6,0.9-0.3,1.4C8.3,19.8,8.6,20,8.9,20h4.2l5.8,24.1V48c0,0.6,0.4,1,1,1h4v2c0,1.7,1.3,3,3,3v6h6v-6c1.7,0,3-1.3,3-3v-2 h4c0.6,0,1-0.4,1-1v-3.9L46.7,20h4.2c0.6,0,1-0.4,1-1C51.9,18.7,51.7,18.3,51.4,18.2z M28.9,3c0-0.6,0.4-1,1-1c0.6,0,1,0.4,1,1v1h-2 L28.9,3L28.9,3z M25.9,7c0-0.6,0.4-1,1-1h6c0.6,0,1,0.4,1,1v1h-8L25.9,7L25.9,7z M20.7,43l-5.5-23h13.7v23H20.7z M30.9,58h-2v-4h2 V58z M33.9,51c0,0.6-0.4,1-1,1h-6c-0.6,0-1-0.4-1-1v-2h8L33.9,51L33.9,51z M38.9,47h-18v-2h18V47z M39.1,43h-8.2V20h13.7L39.1,43z M12.4,18l12.8-8h9.4l12.8,8H12.4z"></path> <path fill="#333333" d="M36.5,41c0.1,0,0.2,0,0.2,0c0.5,0,0.9-0.3,1-0.8l4.1-17c0.1-0.5-0.2-1.1-0.7-1.2c-0.1,0-0.2,0-0.2,0h-2.9 c-0.6,0-1,0.4-1,1s0.4,1,1,1h1.7l-3.8,15.8C35.7,40.3,36,40.8,36.5,41L36.5,41z"></path> <path fill="#333333" d="M24,39.8L20.3,24h1.7c0.6,0,1-0.4,1-1s-0.4-1-1-1H19c-0.6,0-1,0.4-1,1c0,0.1,0,0.2,0,0.2l4.1,17 c0.1,0.4,0.5,0.8,1,0.8c0.1,0,0.2,0,0.2,0C23.8,40.8,24.2,40.3,24,39.8L24,39.8z"></path> </svg> 