<?xml version="1.0" encoding="UTF-8"?> <!-- Generator: Adobe Illustrator 22.1.0, SVG Export Plug-In . SVG Version: 6.00 Build 0) --> <svg xmlns="http://www.w3.org/2000/svg" xmlns:xlink="http://www.w3.org/1999/xlink" id="Layer_1" x="0px" y="0px" width="60px" height="60px" viewBox="0 0 60 60" xml:space="preserve"> <path fill="#007bff" d="M5.3,19.9L23.8,1.4c0.7-0.7,1.9-0.7,2.7,0l5.2,5.2c0.7,0.7,0.7,1.9,0,2.7L13.1,27.7c-0.7,0.7-1.9,0.7-2.7,0 l-5.2-5.2C4.6,21.8,4.6,20.6,5.3,19.9z"></path> <g> <path fill="#007bff" d="M13.1,27.7l3.5-3.5l-7.8-7.8l-3.5,3.5c-0.7,0.7-0.7,1.9,0,2.7l5.2,5.2C11.2,28.4,12.4,28.4,13.1,27.7z"></path> <path fill="#007bff" d="M31.6,9.2l-3.5,3.5l-7.8-7.8l3.5-3.5c0.7-0.7,1.9-0.7,2.7,0l5.2,5.2C32.3,7.3,32.3,8.5,31.6,9.2z"></path> </g> <g> <path fill="#007bff" d="M31.7,16.6c0.6-0.6,1.4-0.7,2.2-0.4c0.9,0.4,1.3,1.6,0.9,2.5l-7.3,15.1c-0.4,0.9-1.6,1.3-2.5,0.9 c-0.9-0.4-1.3-1.6-0.9-2.5l7.3-15.1C31.4,16.9,31.5,16.7,31.7,16.6z"></path> <path fill="#007bff" d="M37.9,22.8c0.6-0.6,1.4-0.7,2.2-0.4c0.9,0.4,1.3,1.6,0.9,2.5L33.6,40c-0.4,0.9-1.6,1.3-2.5,0.9 c-0.9-0.4-1.3-1.6-0.9-2.5l7.3-15.1C37.6,23.1,37.7,22.9,37.9,22.8z"></path> <path fill="#007bff" d="M44.1,29c0.6-0.6,1.4-0.7,2.2-0.4c0.9,0.4,1.3,1.6,0.9,2.5l-7.3,15.1c-0.4,0.9-1.6,1.3-2.5,0.9 s-1.3-1.6-0.9-2.5l7.3-15.1C43.8,29.3,43.9,29.2,44.1,29z"></path> <path fill="#007bff" d="M50.3,35.2c0.6-0.6,1.4-0.7,2.2-0.4c0.9,0.4,1.3,1.6,0.9,2.5l-7.3,15.1c-0.4,0.9-1.6,1.3-2.5,0.9 s-1.3-1.6-0.9-2.5l7.3-15.1C50,35.5,50.1,35.4,50.3,35.2z"></path> </g> <polygon fill="#007bff" points="8.8,56.1 4,47.8 8.8,39.5 18.4,39.5 23.1,47.8 18.4,56.1 "></polygon> <path fill="#333333" d="M59.3,46.3L53.1,40l1.1-2.3c0.3-0.7,0.4-1.4,0.1-2.2c-0.2-0.7-0.8-1.3-1.4-1.6c-1.1-0.5-2.4-0.3-3.2,0.5 c-0.2,0.2-0.4,0.5-0.5,0.8l-0.2,0.5l-2-2l1.1-2.3c0.3-0.7,0.4-1.4,0.1-2.2c-0.2-0.7-0.8-1.3-1.4-1.6c-1.1-0.5-2.4-0.3-3.2,0.5 c-0.2,0.2-0.4,0.5-0.5,0.8l-0.2,0.5l-2-2l1.1-2.3c0.3-0.7,0.4-1.4,0.1-2.2c-0.3-0.7-0.8-1.3-1.4-1.6c-1.1-0.5-2.4-0.3-3.2,0.5l0,0 c-0.2,0.2-0.4,0.5-0.5,0.8l-0.2,0.5l-2-2l1.1-2.2c0.3-0.7,0.4-1.4,0.1-2.2c-0.3-0.7-0.8-1.3-1.4-1.6c-1.1-0.5-2.4-0.3-3.2,0.5 c-0.4,0.4-0.6,0.8-0.8,1.3l-2.6-2.6l4.7-4.7c1.1-1.1,1.1-2.9,0-4l-5.2-5.1c-1.1-1.1-2.9-1.1-4,0l-5.7,5.7c-0.4,0.4-0.4,1,0,1.3 c0.4,0.4,1,0.4,1.3,0l1.6-1.6l6.5,6.5L16.6,22.9l-6.5-6.5l5.4-5.4c0.4-0.4,0.4-1,0-1.3c-0.4-0.4-1-0.4-1.3,0l-9.5,9.5 c-1.1,1.1-1.1,2.9,0,4l5.2,5.2c1.1,1.1,2.9,1.1,4,0l4.7-4.7l5.8,5.8l-1.1,2.3c-0.7,1.4-0.1,3.1,1.3,3.8c0.7,0.3,1.5,0.4,2.2,0.1 c0.7-0.2,1.3-0.8,1.6-1.4l0.2-0.5l2,2L29.4,38c-0.4,0.8-0.4,1.8,0,2.5c0.4,0.7,1,1.2,1.8,1.4c0.5,0.1,1.1,0.1,1.6-0.1 c0.7-0.2,1.3-0.8,1.6-1.4l0.2-0.5l2,2l-1.1,2.3c-0.5,1.1-0.3,2.4,0.6,3.2c0.9,0.9,2.2,1.1,3.3,0.5c0.5-0.3,1-0.7,1.2-1.3l0.2-0.5 l2,2l-1.1,2.3c-0.5,1.1-0.3,2.4,0.6,3.2c0.9,0.9,2.2,1.1,3.3,0.5c0.5-0.3,1-0.7,1.2-1.3l0.2-0.5l3,3c1.1,1.1,2.9,1.1,4,0l5.2-5.2 C60.4,49.2,60.4,47.4,59.3,46.3z M21.6,4.9l2.8-2.8c0.4-0.4,1-0.4,1.3,0l5.2,5.2c0.4,0.4,0.4,1,0,1.3l-2.8,2.8L21.6,4.9z M12.4,27 c-0.4,0.4-1,0.4-1.3,0L6,21.9c-0.4-0.4-0.4-1,0-1.3l2.8-2.8l6.5,6.5L12.4,27z M19.8,22.4l6.5-6.5l3.1,3.1l-4.2,8.7L19.8,22.4z M26.6,33.4c-0.2,0.5-0.9,0.7-1.4,0.4c-0.4-0.3-0.5-0.8-0.3-1.2l7.3-15.1c0.2-0.5,0.8-0.7,1.3-0.4c0.5,0.2,0.7,0.8,0.4,1.3 L26.6,33.4z M29.4,31.9l4.2-8.7l2,2l-4.2,8.7L29.4,31.9z M32.8,39.6c-0.2,0.5-0.8,0.7-1.3,0.4c-0.5-0.2-0.7-0.8-0.4-1.3l7.3-15.1 c0.2-0.5,0.8-0.7,1.2-0.4c0.5,0.2,0.7,0.8,0.5,1.3L32.8,39.6z M35.6,38.2l4.2-8.7l2,2l-4.2,8.7L35.6,38.2z M39,45.8 c-0.2,0.5-0.8,0.7-1.3,0.4c-0.5-0.2-0.7-0.8-0.4-1.3l7.3-15.1c0.2-0.5,0.8-0.7,1.3-0.4s0.7,0.8,0.4,1.3L39,45.8z M41.8,44.4l4.2-8.7 l2,2l-4.2,8.7L41.8,44.4z M45.2,52c-0.2,0.5-0.8,0.7-1.3,0.4c-0.5-0.2-0.7-0.8-0.4-1.3l7.3-15.1c0.2-0.5,0.8-0.7,1.3-0.4 c0.5,0.2,0.7,0.8,0.4,1.3L45.2,52z M58,48.9l-5.1,5.2c-0.2,0.2-0.4,0.3-0.7,0.3c-0.2,0-0.5-0.1-0.7-0.3L48,50.6l4.2-8.7l5.8,5.8 c0.2,0.2,0.3,0.4,0.3,0.7C58.3,48.5,58.2,48.8,58,48.9z"></path> <path fill="#333333" d="M21.5,36.9C21,36.1,20,35.5,19,35.5H8.1c-1,0-1.9,0.5-2.4,1.4l-5.4,9.4c-0.5,0.9-0.5,2,0,2.8l5.4,9.4 C6.2,59.5,7.1,60,8.1,60h1.6c0.5,0,0.9-0.4,0.9-0.9s-0.4-0.9-0.9-0.9H8.1c-0.3,0-0.6-0.2-0.8-0.5l-5.4-9.4c-0.2-0.3-0.2-0.6,0-0.9 l5.4-9.4c0.2-0.3,0.5-0.5,0.8-0.5H19c0.3,0,0.6,0.2,0.8,0.5l5.4,9.4c0.2,0.3,0.2,0.6,0,0.9l-5.4,9.4c-0.2,0.3-0.5,0.5-0.8,0.5h-4.2 c-0.5,0-0.9,0.4-0.9,0.9s0.4,0.9,0.9,0.9H19c1,0,1.9-0.5,2.4-1.4l5.4-9.4c0.5-0.9,0.5-2,0-2.8L21.5,36.9z"></path> <path fill="#333333" d="M19.2,56.5l4.8-8.3c0.2-0.3,0.2-0.6,0-0.9L19.2,39c-0.2-0.3-0.5-0.5-0.8-0.5H8.8c-0.3,0-0.6,0.2-0.8,0.5 l-4.8,8.3c-0.2,0.3-0.2,0.6,0,0.9L8,56.5C8.1,56.8,8.5,57,8.8,57h9.6C18.7,57,19,56.8,19.2,56.5z M9.3,55.1l-4.2-7.3l4.2-7.3h8.5 l4.2,7.3l-4.2,7.3H9.3z"></path> </svg> 