<?xml version="1.0" encoding="UTF-8"?> <!-- Generator: Adobe Illustrator 22.1.0, SVG Export Plug-In . SVG Version: 6.00 Build 0) --> <svg xmlns="http://www.w3.org/2000/svg" xmlns:xlink="http://www.w3.org/1999/xlink" id="Layer_1" x="0px" y="0px" width="60px" height="60px" viewBox="0 0 60 60" xml:space="preserve"> <path fill="#007bff" d="M53.4,0.9H13c-0.7,0-1.2,0.6-1.2,1.2v5.4h35.1c0.7,0,1.2,0.6,1.2,1.2v43.6h5.3c0.7,0,1.2-0.6,1.2-1.2v-49 C54.6,1.5,54.1,0.9,53.4,0.9z"></path> <path fill="#007bff" d="M17.8,47.7c0-0.7-0.6-1.2-1.2-1.2H6.5c-0.7,0-0.8,0.4-0.4,0.9L17,58.2c0.5,0.5,0.9,0.3,0.9-0.4L17.8,47.7 L17.8,47.7L17.8,47.7z"></path> <path fill="#333333" d="M54.6,41c0.5,0,0.9-0.4,0.9-0.9V2.1c0-1.2-1-2.1-2.1-2.1H13c-1.2,0-2.1,1-2.1,2.1v4.5H6.5 c-1.2,0-2.1,1-2.1,2.1v36.4c0,0.9,0.5,2.1,1.1,2.7l4.6,4.6c0.2,0.2,0.4,0.3,0.6,0.3s0.5-0.1,0.6-0.3c0.4-0.4,0.4-0.9,0-1.3l-3.9-3.9 h9.1c0.2,0,0.3,0.1,0.3,0.3v9.2l-2.3-2.3c-0.4-0.4-0.9-0.4-1.3,0c-0.4,0.4-0.4,0.9,0,1.3l3,3c0.6,0.6,1.8,1.1,2.7,1.1h27.8 c1.2,0,2.1-1,2.1-2.1v-4.5h4.4c1.2,0,2.1-1,2.1-2.1v-6.2c0-0.5-0.4-0.9-0.9-0.9c-0.5,0-0.9,0.4-0.9,0.9v6.2c0,0.2-0.1,0.3-0.3,0.3 H49V16.2c0-0.5-0.4-0.9-0.9-0.9s-0.9,0.4-0.9,0.9v41.7c0,0.2-0.1,0.3-0.3,0.3H19.1c-0.1,0-0.2,0-0.3,0V47.7c0-1.2-1-2.1-2.1-2.1H6.2 c0-0.1,0-0.2,0-0.3V8.8c0-0.2,0.1-0.3,0.3-0.3h40.4c0.2,0,0.3,0.1,0.3,0.3v2.9c0,0.5,0.4,0.9,0.9,0.9c0.5,0,0.9-0.4,0.9-0.9V8.8 c0-1.2-1-2.1-2.1-2.1H12.7V2.1c0-0.2,0.1-0.3,0.3-0.3h40.4c0.2,0,0.3,0.1,0.3,0.3V40C53.7,40.5,54.1,41,54.6,41z"></path> <path fill="#333333" d="M38,16.7H16.6c-0.5,0-0.9,0.4-0.9,0.9c0,0.5,0.4,0.9,0.9,0.9H38c0.5,0,0.9-0.4,0.9-0.9 C38.9,17.1,38.5,16.7,38,16.7z"></path> <path fill="#333333" d="M38,22.6H16.6c-0.5,0-0.9,0.4-0.9,0.9c0,0.5,0.4,0.9,0.9,0.9H38c0.5,0,0.9-0.4,0.9-0.9 C38.9,23,38.5,22.6,38,22.6z"></path> <path fill="#333333" d="M38,28.5H16.6c-0.5,0-0.9,0.4-0.9,0.9s0.4,0.9,0.9,0.9H38c0.5,0,0.9-0.4,0.9-0.9 C38.9,28.9,38.5,28.5,38,28.5z"></path> <path fill="#333333" d="M38,34.3H16.6c-0.5,0-0.9,0.4-0.9,0.9c0,0.5,0.4,0.9,0.9,0.9H38c0.5,0,0.9-0.4,0.9-0.9 C38.9,34.8,38.5,34.3,38,34.3z"></path> <path fill="#333333" d="M38,40.2H16.6c-0.5,0-0.9,0.4-0.9,0.9s0.4,0.9,0.9,0.9H38c0.5,0,0.9-0.4,0.9-0.9S38.5,40.2,38,40.2z"></path> <path fill="#333333" d="M38,46.1H24.9c-0.5,0-0.9,0.4-0.9,0.9c0,0.5,0.4,0.9,0.9,0.9H38c0.5,0,0.9-0.4,0.9-0.9 C38.9,46.5,38.5,46.1,38,46.1z"></path> </svg> 