<?xml version="1.0" encoding="UTF-8"?> <!-- Generator: Adobe Illustrator 22.1.0, SVG Export Plug-In . SVG Version: 6.00 Build 0) --> <svg xmlns="http://www.w3.org/2000/svg" xmlns:xlink="http://www.w3.org/1999/xlink" id="Capa_1" x="0px" y="0px" width="60px" height="60px" viewBox="0 0 60 60" xml:space="preserve"> <circle fill="#007bff" cx="9.4" cy="50.7" r="3.8"></circle> <path fill="#007bff" d="M39.4,24.7H20.5c-1.8,0-3.3-1.5-3.3-3.3l0,0c0-1.8,1.5-3.3,3.3-3.3h18.9c1.8,0,3.3,1.5,3.3,3.3l0,0 C42.7,23.3,41.3,24.7,39.4,24.7z"></path> <path fill="#007bff" d="M39.4,24.7v6.6c0,5.2-4.2,9.4-9.4,9.4l0,0c-5.2,0-9.4-4.2-9.4-9.4v-6.6"></path> <path fill="#333333" d="M9.4,45.7c-0.8,0-1.5,0.2-2.2,0.5c-6.8-9.6-6.8-22.7,0-32.2c0.4-0.5,0.3-1.3-0.3-1.6s-1.3-0.3-1.6,0.3 c-3.8,5.3-5.7,11.5-5.6,18c0.1,6.2,2.1,12.1,5.6,17.1c-1.4,2-1.3,4.7,0.5,6.5c1,1,2.3,1.5,3.5,1.5s2.6-0.5,3.5-1.5l0,0 c1.9-1.9,1.9-5.1,0-7.1C12,46.2,10.8,45.7,9.4,45.7z M11.3,52.6c-1,1-2.7,1-3.7,0c-1-1-1-2.7,0-3.7c0.5-0.5,1.2-0.8,1.9-0.8 s1.4,0.3,1.9,0.8C12.3,49.9,12.3,51.5,11.3,52.6z"></path> <path fill="#333333" d="M46.3,52.8c-3.4,2.4-7.2,4.1-11.3,4.8c-1,0.2-1.9-0.1-2.7-0.7c-0.7-0.6-1.2-1.5-1.2-2.5v-8.7h0.1 c1.4,0,2.5-1.1,2.5-2.5v-2c4-1.5,6.8-5.4,6.8-9.9v-5.6c1.9-0.5,3.3-2.3,3.3-4.3c0-2.3-1.7-4.2-3.9-4.5V9.6c0-1.9-1.6-3.5-3.5-3.5 s-3.5,1.6-3.5,3.5v7.3H27V9.6c0-1.9-1.6-3.5-3.5-3.5s-3.5,1.6-3.5,3.5V17c-2.2,0.3-3.9,2.2-3.9,4.5c0,2.1,1.4,3.8,3.3,4.3v5.6 c0,4.5,2.8,8.4,6.8,9.9v2c0,1.4,1.1,2.5,2.5,2.5h0.1v8.7c0,1.7,0.7,3.2,2,4.3c1,0.9,2.3,1.3,3.6,1.3c0.3,0,0.7,0,1-0.1 c4.5-0.8,8.6-2.6,12.2-5.2c0.5-0.4,0.6-1.1,0.3-1.7C47.5,52.5,46.8,52.4,46.3,52.8z M35.3,9.6c0-0.6,0.5-1.2,1.2-1.2 s1.2,0.5,1.2,1.2v7.3h-2.4V9.6z M22.3,9.6c0-0.6,0.5-1.2,1.2-1.2s1.2,0.5,1.2,1.2v7.3h-2.4V9.6z M18.4,21.4c0-1.2,1-2.1,2.1-2.1 h18.9c1.2,0,2.1,1,2.1,2.1s-1,2.1-2.1,2.1H20.5C19.4,23.6,18.4,22.6,18.4,21.4z M21.7,31.3v-5.4h16.5v5.4c0,4.6-3.7,8.3-8.3,8.3 S21.7,35.9,21.7,31.3z M28.6,43.3v-1.4C29,41.9,29.5,42,30,42s1,0,1.4-0.1v1.4c0,0.1,0,0.1-0.1,0.1H30c0,0,0,0,0,0s0,0,0,0h-1.3 C28.6,43.4,28.6,43.3,28.6,43.3z"></path> <path fill="#333333" d="M49.7,49.9C49.7,49.9,49.6,49.9,49.7,49.9c-0.5,0.5-0.4,1.3,0,1.7c0.2,0.2,0.5,0.3,0.8,0.3 c0.3,0,0.6-0.1,0.8-0.4c0,0,0,0,0,0c0.4-0.5,0.4-1.2-0.1-1.7C50.9,49.4,50.1,49.4,49.7,49.9z"></path> <path fill="#333333" d="M60.1,28c-0.5-7.2-3.6-14-8.8-19.2c-5-5-11.8-8.1-19-8.7c-7.1-0.6-14.2,1.4-19.9,5.4 c-0.5,0.4-0.7,1.1-0.3,1.6c0.4,0.5,1.1,0.7,1.6,0.3c11-7.8,26.4-6.5,35.8,3c9.8,9.8,11,25,2.8,36.1c-0.4,0.5-0.3,1.3,0.3,1.7 c0.2,0.2,0.4,0.2,0.7,0.2c0.4,0,0.7-0.2,1-0.5C58.6,42.2,60.6,35.1,60.1,28z"></path> <path fill="#333333" d="M9.3,11c0.3,0,0.6-0.1,0.8-0.4l0,0c0.5-0.5,0.5-1.2,0-1.7c-0.5-0.5-1.2-0.5-1.7,0l0,0C8,9.4,8,10.2,8.4,10.6 C8.7,10.8,9,11,9.3,11z"></path> <path fill="#333333" d="M30.2,36.4l2.4-4.3c0.2-0.4,0.2-0.8,0-1.2c-0.2-0.4-0.6-0.6-1-0.6h-0.8l1.6-2c0.4-0.5,0.3-1.3-0.2-1.7 c-0.5-0.4-1.3-0.3-1.7,0.2l-3.1,3.9c-0.3,0.4-0.3,0.8-0.1,1.3c0.2,0.4,0.6,0.7,1.1,0.7h1.3l-1.4,2.6c-0.3,0.6-0.1,1.3,0.4,1.6 c0.2,0.1,0.4,0.2,0.6,0.2C29.6,37,30,36.8,30.2,36.4z"></path> </svg> 