<?xml version="1.0" encoding="UTF-8"?> <!-- Generator: Adobe Illustrator 22.1.0, SVG Export Plug-In . SVG Version: 6.00 Build 0) -->
<svg xmlns="http://www.w3.org/2000/svg" xmlns:xlink="http://www.w3.org/1999/xlink" id="Capa_1" x="0px" y="0px"
     width="60px" height="60px" viewBox="0 0 60 60" xml:space="preserve"> <path fill="#007bff"
                                                                                d="M45,48l3-3l11,11v3h-3L45,48z"></path>
    <g> <path fill="#007bff"
              d="M8,21l-6.4-6.4C1.2,14.2,1,13.7,1,13.1c0-1.2,1-2.1,2.1-2.1l0,0c0.6,0,1.1,0.2,1.5,0.6L11,18L8,21z"></path>
        <path fill="#007bff"
              d="M21,8l-6.4-6.4C14.2,1.2,13.7,1,13.1,1c-1.2,0-2.1,1-2.1,2.1l0,0c0,0.6,0.2,1.1,0.6,1.5L18,11L21,8z"></path> </g>
    <path fill="#007bff" d="M36,37l-3-16l-4,4l-2-5l-5,5l4,10l4-4L36,37z"></path>
    <path fill="#333333"
          d="M49.4,45c1.1-1.2,1-3-0.1-4.1l-3-3c4-5.2,3.5-12.5-1.1-17.1L32.4,8l0.3-0.3c1.8-1.8,1.8-4.6,0-6.4 c-1.8-1.8-4.6-1.8-6.4,0L21,6.5l-5.7-5.7c-1.2-1.2-3.2-1.2-4.4,0s-1.2,3.2,0,4.4l0,0l5.7,5.7L11,16.6l-5.7-5.7 c-1.2-1.2-3.2-1.2-4.4,0s-1.2,3.2,0,4.4l0,0L6.5,21l-5.3,5.3c-1.8,1.8-1.8,4.6,0,6.4c1.8,1.8,4.6,1.8,6.4,0L8,32.4l12.8,12.8 c4.6,4.6,11.9,5.1,17.1,1.1l3,3c1.1,1.1,2.9,1.2,4.1,0.1L55.6,60H60v-4.4L49.4,45z M12.3,3.9c-0.4-0.4-0.4-1.2,0-1.6 c0.4-0.4,1.2-0.4,1.6,0L19.6,8L18,9.6L12.3,3.9z M2.3,13.9c-0.4-0.4-0.4-1.2,0-1.6c0.4-0.4,1.2-0.4,1.6,0L9.6,18L8,19.6L2.3,13.9z M6.3,31.2c-1,1-2.6,1-3.6-0.1c-1-1-1-2.6,0-3.5L8,22.4l4.4-4.4l5.6-5.6L22.4,8l5.3-5.3c1-1,2.6-1,3.6,0.1c1,1,1,2.6,0,3.5L31,6.5 L6.5,31L6.3,31.2z M22.2,43.8L9.4,31L31,9.4l12.8,12.8c4.3,4.3,4.3,11.3,0,15.6l-6,6C33.5,48.1,26.5,48.1,22.2,43.8z M42.3,47.9 L39.4,45l5.6-5.6l2.9,2.9c0.4,0.4,0.4,1,0,1.4l-4.2,4.2C43.3,48.3,42.7,48.3,42.3,47.9L42.3,47.9z M58,58h-1.6l-10-10l1.6-1.6l10,10 V58z"></path>
    <path fill="#333333"
          d="M34,20.8c-0.1-0.5-0.6-0.9-1.2-0.8c-0.2,0-0.4,0.1-0.5,0.3l-2.9,2.9l-1.5-3.6c-0.1-0.3-0.4-0.5-0.7-0.6 c-0.3-0.1-0.7,0-0.9,0.3l-5,5C21,24.5,20.9,25,21,25.3l4,10c0.2,0.5,0.8,0.8,1.3,0.6c0.1-0.1,0.2-0.1,0.3-0.2l3.3-3.3l5.3,5.3 c0.4,0.4,1,0.4,1.4,0c0.2-0.2,0.3-0.6,0.3-0.9L34,20.8z M30.7,30.3c-0.4-0.4-1-0.4-1.4,0l-2.9,2.9l-3.2-8l3.5-3.5l1.4,3.6 c0.2,0.5,0.8,0.8,1.3,0.6c0.1-0.1,0.2-0.1,0.3-0.2l2.7-2.7l2.1,11L30.7,30.3z"></path> </svg> 