<?xml version="1.0" encoding="UTF-8"?> <!-- Generator: Adobe Illustrator 22.1.0, SVG Export Plug-In . SVG Version: 6.00 Build 0) --> <svg xmlns="http://www.w3.org/2000/svg" xmlns:xlink="http://www.w3.org/1999/xlink" id="Capa_1" x="0px" y="0px" width="60px" height="60px" viewBox="0 0 60 60" xml:space="preserve"> <path fill="#007bff" d="M44.7,33L27,15.3l6-6c2.7-2.7,7.2-2.7,9.9,0l7.9,7.9c2.7,2.7,2.7,7.2,0,9.9L44.7,33z"></path> <path fill="#007bff" d="M16.7,25.5l17.8,17.8l-7.3,7.3c-2.7,2.7-7.2,2.7-9.9,0l-7.9-7.9c-2.7-2.7-2.7-7.2,0-9.9L16.7,25.5z"></path> <g> <path fill="#333333" d="M50.9,12.8L50.9,12.8c-0.3,0-0.5-0.1-0.7-0.3l-2.7-2.7c-0.4-0.4-0.4-1,0-1.4l8.2-8.2c0.4-0.4,1-0.4,1.4,0 l2.7,2.7c0.4,0.4,0.4,1,0,1.4l-8.2,8.2C51.4,12.7,51.2,12.8,50.9,12.8z M49.6,9.1l1.3,1.3l6.8-6.8l-1.3-1.3L49.6,9.1z"></path> <path fill="#333333" d="M50.2,17.6L50.2,17.6c-0.3,0-0.5-0.1-0.7-0.3l-6.8-6.8c-0.2-0.2-0.3-0.4-0.3-0.7c0-0.3,0.1-0.5,0.3-0.7 L44,7.8c1.2-1.2,3.1-1.2,4.3,0l4,4c1.2,1.2,1.2,3.1,0,4.3l-1.3,1.3C50.7,17.5,50.5,17.6,50.2,17.6z M44.8,9.8l5.4,5.4l0.6-0.6 c0.4-0.4,0.4-1,0-1.4l-4-4c-0.4-0.4-1-0.4-1.4,0L44.8,9.8z"></path> <path fill="#333333" d="M44.7,34c-0.3,0-0.5-0.1-0.7-0.3L26.3,16c-0.2-0.2-0.3-0.4-0.3-0.7s0.1-0.5,0.3-0.7l6-6 c1.5-1.5,3.5-2.3,5.7-2.3c2.1,0,4.2,0.8,5.7,2.3l7.9,7.9c3.1,3.1,3.1,8.2,0,11.3l-6,6C45.3,33.9,45,34,44.7,34z M28.4,15.3 l16.4,16.4l5.3-5.3c2.3-2.3,2.3-6.2,0-8.5L42.2,10c-1.1-1.1-2.6-1.8-4.3-1.8s-3.1,0.6-4.3,1.8L28.4,15.3z"></path> <path fill="#333333" d="M42.7,15.6c-0.3,0-0.5-0.1-0.7-0.3l-2.7-2.7c-0.7-0.7-1.9-0.7-2.7,0l-2.7,2.7c-0.4,0.4-1,0.4-1.4,0 c-0.4-0.4-0.4-1,0-1.4l2.7-2.7c1.5-1.5,4-1.5,5.5,0l2.7,2.7c0.4,0.4,0.4,1,0,1.4C43.2,15.5,42.9,15.6,42.7,15.6z"></path> <path fill="#333333" d="M3.7,60c-0.3,0-0.5-0.1-0.7-0.3L0.3,57c-0.4-0.4-0.4-1,0-1.4l8.2-8.2c0.2-0.2,0.4-0.3,0.7-0.3l0,0 c0.3,0,0.5,0.1,0.7,0.3l2.7,2.7c0.4,0.4,0.4,1,0,1.4l-8.2,8.2C4.3,59.9,4,60,3.7,60z M2.4,56.3l1.3,1.3l6.8-6.8l-1.3-1.3L2.4,56.3z "></path> <path fill="#333333" d="M14,53c-0.8,0-1.5-0.3-2.1-0.9l-4-4c-1.2-1.2-1.2-3.1,0-4.3l1.3-1.3c0.2-0.2,0.4-0.3,0.7-0.3l0,0 c0.3,0,0.5,0.1,0.7,0.3l6.8,6.8c0.2,0.2,0.3,0.4,0.3,0.7c0,0.3-0.1,0.5-0.3,0.7l-1.3,1.3C15.5,52.7,14.7,53,14,53z M9.9,44.7 l-0.6,0.6c-0.4,0.4-0.4,1,0,1.4l4,4c0.4,0.4,1,0.4,1.4,0l0.6-0.6L9.9,44.7z"></path> <path fill="#333333" d="M22.2,53.7c-2.1,0-4.2-0.8-5.7-2.3l-7.9-7.9c-3.1-3.1-3.1-8.2,0-11.3l7.3-7.3c0.4-0.4,1-0.4,1.4,0 l17.8,17.8c0.4,0.4,0.4,1,0,1.4l-7.3,7.3C26.3,52.8,24.3,53.7,22.2,53.7z M16.7,26.9l-6.6,6.6c-2.3,2.3-2.3,6.2,0,8.5l7.9,7.9 c1.1,1.1,2.6,1.8,4.3,1.8c1.6,0,3.1-0.6,4.3-1.8l6.6-6.6L16.7,26.9z"></path> <path fill="#333333" d="M22.2,32c-0.3,0-0.5-0.1-0.7-0.3l-2.7-2.7c-0.2-0.2-0.3-0.4-0.3-0.7c0-0.3,0.1-0.5,0.3-0.7l6.2-6.2 c1.1-1.1,3-1.1,4.2,0c0.6,0.6,0.9,1.3,0.9,2.1c0,0.8-0.3,1.5-0.9,2.1l-6.2,6.2C22.7,31.9,22.4,32,22.2,32z M20.9,28.2l1.3,1.3 l5.4-5.4c0.2-0.2,0.3-0.4,0.3-0.7c0-0.2-0.1-0.5-0.3-0.7c-0.4-0.4-1-0.4-1.3,0L20.9,28.2z"></path> <path fill="#333333" d="M31.8,41.5c-0.3,0-0.5-0.1-0.7-0.3l-2.7-2.7c-0.2-0.2-0.3-0.4-0.3-0.7s0.1-0.5,0.3-0.7l6.2-6.2 c1.2-1.2,3-1.2,4.2,0c1.1,1.2,1.1,3,0,4.2l-6.2,6.2C32.3,41.4,32,41.5,31.8,41.5z M30.4,37.8l1.3,1.3l5.4-5.4c0.4-0.4,0.4-1,0-1.3 c-0.4-0.4-1-0.4-1.3,0L30.4,37.8z"></path> <path fill="#333333" d="M23.6,49.8c-0.3,0-0.5-0.1-0.7-0.3L10.5,37.2c-0.4-0.4-0.4-1,0-1.4l5.5-5.5c0.4-0.4,1-0.4,1.4,0l12.3,12.3 c0.4,0.4,0.4,1,0,1.4l-5.5,5.5C24.1,49.7,23.8,49.8,23.6,49.8z M12.7,36.4l10.9,10.9l4.1-4.1L16.7,32.4L12.7,36.4z"></path> <path fill="#333333" d="M22.2,42.9c-0.3,0-0.5-0.1-0.7-0.3l-4.1-4.1c-0.4-0.4-0.4-1,0-1.4c0.4-0.4,1-0.4,1.4,0l4.1,4.1 c0.4,0.4,0.4,1,0,1.4C22.7,42.8,22.4,42.9,22.2,42.9z"></path> </g> </svg> 