<?xml version="1.0" encoding="UTF-8"?> <!-- Generator: Adobe Illustrator 22.1.0, SVG Export Plug-In . SVG Version: 6.00 Build 0) -->
<svg xmlns="http://www.w3.org/2000/svg" xmlns:xlink="http://www.w3.org/1999/xlink" id="Capa_1" x="0px" y="0px"
     width="60px" height="60px" viewBox="0 0 60 60" xml:space="preserve"> <g> <path fill="#007bff"
                                                                                    d="M51.4,56.7c-0.1-0.1-0.2-0.2-0.3-0.3C51.2,56.5,51.3,56.6,51.4,56.7z"></path>
    <path fill="#007bff" d="M54.3,58.5c0.1,0,0.3,0.1,0.4,0.1C54.5,58.6,54.4,58.6,54.3,58.5z"></path>
    <path fill="#007bff" d="M55,58.7c0.1,0,0.3,0.1,0.4,0.1C55.3,58.8,55.2,58.8,55,58.7z"></path>
    <path fill="#007bff" d="M55.8,58.9c0.1,0,0.3,0,0.4,0.1C56.1,59,55.9,58.9,55.8,58.9z"></path>
    <path fill="#007bff" d="M53.5,58.2c0.1,0.1,0.3,0.1,0.4,0.2C53.8,58.3,53.7,58.3,53.5,58.2z"></path>
    <path fill="#007bff" d="M52.9,57.8c0.1,0.1,0.2,0.2,0.3,0.2C53.1,58,53,57.9,52.9,57.8z"></path>
    <path fill="#007bff" d="M49.5,53.7c0,0.1,0.1,0.3,0.2,0.4C49.6,54,49.5,53.8,49.5,53.7z"></path>
    <path fill="#007bff" d="M49,51c0,0.3,0,0.5,0,0.8C49,51.5,49,51.3,49,51z"></path>
    <path fill="#007bff" d="M49.3,52.9c0,0.2,0.1,0.3,0.1,0.5C49.3,53.2,49.3,53.1,49.3,52.9z"></path>
    <path fill="#007bff" d="M49.1,52.1c0,0.2,0,0.4,0.1,0.5C49.1,52.4,49.1,52.3,49.1,52.1z"></path>
    <path fill="#007bff" d="M51.6,56.9c0.1,0.1,0.2,0.2,0.3,0.3C51.8,57.1,51.7,57,51.6,56.9z"></path>
    <path fill="#007bff" d="M50.6,55.8c0.1,0.1,0.2,0.2,0.3,0.3C50.8,56,50.7,55.9,50.6,55.8z"></path>
    <path fill="#007bff" d="M50.2,55.1c0.1,0.1,0.1,0.3,0.2,0.4C50.3,55.4,50.2,55.3,50.2,55.1z"></path>
    <path fill="#007bff" d="M52.2,57.4c0.1,0.1,0.2,0.2,0.3,0.3C52.4,57.6,52.3,57.5,52.2,57.4z"></path>
    <path fill="#007bff" d="M49.8,54.4c0.1,0.1,0.1,0.3,0.2,0.4C49.9,54.7,49.8,54.6,49.8,54.4z"></path>
    <path fill="#007bff" d="M49,51.8c0,0.1,0,0.2,0,0.3C49.1,52,49.1,51.9,49,51.8z"></path>
    <path fill="#007bff" d="M54.7,58.7c0.1,0,0.2,0.1,0.4,0.1C54.9,58.7,54.8,58.7,54.7,58.7z"></path>
    <path fill="#007bff"
          d="M55.8,58.9c-0.1,0-0.3,0-0.4-0.1s-0.3-0.1-0.4-0.1s-0.3,0-0.4-0.1s-0.3-0.1-0.4-0.1s-0.2-0.1-0.3-0.1 s-0.3-0.1-0.4-0.2s-0.2-0.1-0.3-0.2s-0.2-0.1-0.3-0.2s-0.2-0.1-0.3-0.2s-0.2-0.2-0.3-0.3s-0.2-0.1-0.3-0.2s-0.2-0.2-0.3-0.3 s-0.2-0.2-0.3-0.2s-0.2-0.2-0.3-0.3c-0.1-0.1-0.2-0.2-0.2-0.3c-0.1-0.1-0.2-0.2-0.3-0.3c-0.1-0.1-0.2-0.2-0.2-0.3 c-0.1-0.1-0.2-0.2-0.2-0.4c-0.1-0.1-0.1-0.2-0.2-0.3c-0.1-0.1-0.1-0.3-0.2-0.4c0-0.1-0.1-0.2-0.2-0.3c-0.1-0.1-0.1-0.3-0.2-0.4 c0-0.1-0.1-0.2-0.1-0.3c0-0.2-0.1-0.3-0.1-0.5c0-0.1-0.1-0.2-0.1-0.3c0-0.2-0.1-0.4-0.1-0.5c0-0.1,0-0.2,0-0.3c0-0.3,0-0.5,0-0.8 v-2H5v2c0,4.4,3.6,8,8,8h44c-0.1,0-0.3,0-0.4,0s-0.3,0-0.4,0C56.1,59,55.9,58.9,55.8,58.9L55.8,58.9z"></path>
    <path fill="#007bff" d="M55.4,58.8c0.1,0,0.3,0,0.4,0.1C55.7,58.9,55.6,58.9,55.4,58.8z"></path>
    <path fill="#007bff" d="M49.2,52.6c0,0.1,0,0.2,0.1,0.3C49.2,52.8,49.2,52.7,49.2,52.6z"></path>
    <path fill="#007bff" d="M51.6,56.9c-0.1-0.1-0.2-0.2-0.3-0.2C51.4,56.8,51.5,56.8,51.6,56.9z"></path>
    <path fill="#007bff" d="M49.6,54.1c0,0.1,0.1,0.2,0.2,0.3C49.7,54.3,49.7,54.2,49.6,54.1z"></path>
    <path fill="#007bff" d="M56.6,59c-0.1,0-0.3,0-0.4,0C56.4,59,56.5,59,56.6,59z"></path>
    <path fill="#007bff" d="M50.8,56.1c0.1,0.1,0.2,0.2,0.2,0.3C51,56.3,50.9,56.2,50.8,56.1z"></path>
    <path fill="#007bff" d="M50.4,55.5c0.1,0.1,0.1,0.2,0.2,0.3C50.5,55.7,50.4,55.6,50.4,55.5z"></path>
    <path fill="#007bff" d="M49.4,53.4c0,0.1,0.1,0.2,0.1,0.3C49.4,53.6,49.4,53.5,49.4,53.4z"></path>
    <path fill="#007bff" d="M50,54.8c0,0.1,0.1,0.2,0.2,0.3C50.1,55,50,54.9,50,54.8z"></path>
    <path fill="#007bff" d="M53.9,58.4c0.1,0,0.2,0.1,0.3,0.1C54.2,58.5,54,58.4,53.9,58.4z"></path>
    <path fill="#007bff" d="M52.6,57.7c0.1,0.1,0.2,0.1,0.3,0.2C52.8,57.8,52.7,57.7,52.6,57.7z"></path>
    <path fill="#007bff" d="M53.2,58c0.1,0.1,0.2,0.1,0.3,0.2C53.4,58.2,53.3,58.1,53.2,58z"></path>
    <path fill="#007bff" d="M51.9,57.2c0.1,0.1,0.2,0.2,0.3,0.2C52.1,57.3,52,57.3,51.9,57.2z"></path>
    <path fill="#007bff" d="M32,19H7v8h25l-1-4L32,19z"></path>
    <path fill="#007bff" d="M23,42h30V12L23,42z M47,36h-9.5l9.5-9.5V36z"></path> </g>
    <g> <path fill="#333333"
              d="M59,0H14c-0.6,0-1,0.4-1,1v15h2V2h43v55c0,0.5-0.4,1-0.9,1c-0.1,0-0.2,0-0.3,0c-0.2,0-0.3,0-0.5,0 c0,0,0,0,0,0C53,57.6,50.4,55,50,51.8c0,0,0,0,0,0c0-0.2,0-0.5,0-0.7v-2c0-0.5-0.5-1-1-1H15V30h-2v18H5c-0.6,0-1,0.5-1,1v2 c0,5,4,9,9,9h44.1c1.6,0,2.9-1.4,2.9-3V1C60,0.4,59.6,0,59,0z M13,58c-3.9,0-7-3.1-7-7v-1h42v1c0,0.3,0,0.7,0.1,1 c0,0.1,0,0.2,0,0.3c0,0.2,0.1,0.5,0.1,0.7c0,0.1,0,0.2,0.1,0.3c0.1,0.2,0.1,0.5,0.2,0.7c0,0.1,0,0.1,0.1,0.2 c0.1,0.3,0.2,0.5,0.3,0.7c0,0,0,0.1,0.1,0.2c0.1,0.3,0.3,0.5,0.4,0.7c0,0,0,0.1,0.1,0.1c0.2,0.3,0.3,0.5,0.5,0.7l0,0 c0.2,0.3,0.5,0.5,0.7,0.8c0.2,0.2,0.4,0.4,0.7,0.6L13,58z"></path>
        <path fill="#333333"
              d="M33,28c0.3,0,0.5-0.1,0.7-0.3l4-4c0.4-0.4,0.4-1,0-1.4l-4-4C33.5,18.1,33.3,18,33,18H5c-2.8,0-5,2.2-5,5 s2.2,5,5,5L33,28z M30.2,22H10v2h20.2l0.5,2H8v-6h22.7L30.2,22z M35.6,23l-2.8,2.9L32,23l0.7-2.9L35.6,23z M2,23c0-1.7,1.3-3,3-3h1 v6H5C3.3,26,2,24.7,2,23z"></path>
        <path fill="#333333"
              d="M23,43h30c0.5,0,1-0.5,1-1V12c0-0.6-0.5-1-1-1c-0.3,0-0.5,0.1-0.7,0.3l-30,30c-0.4,0.4-0.4,1,0,1.4 C22.5,42.9,22.7,43,23,43z M52,14.4V17h-2v2h2v2h-2v2h2v2h-2v2h2v2h-2v2h2v2h-2v2h2v2h-2v2h2v2h-2v-2h-2v2h-2v-2h-2v2h-2v-2h-2v2 h-2v-2h-2v2h-2v-2h-2v2h-2v-2h-2v2h-2.6L52,14.4z"></path>
        <path fill="#333333"
              d="M37.5,37H47c0.5,0,1-0.5,1-1v-9.5c0-0.5-0.5-1-1-1c-0.3,0-0.5,0.1-0.7,0.3l-9.5,9.5c-0.4,0.4-0.4,1,0,1.4 C37,36.9,37.2,37,37.5,37z M46,28.9V35h-6.1L46,28.9z"></path>
        <path fill="#333333" d="M26,6h20v2H26V6z"></path>
        <path fill="#333333" d="M23,10h26v2H23V10z"></path>
        <path fill="#333333" d="M17,31h6v2h-6V31z"></path>
        <path fill="#333333" d="M17,35h4v2h-4V35z"></path> </g> </svg>