<?xml version="1.0" encoding="UTF-8"?> <!-- Generator: Adobe Illustrator 22.1.0, SVG Export Plug-In . SVG Version: 6.00 Build 0) -->
<svg xmlns="http://www.w3.org/2000/svg" xmlns:xlink="http://www.w3.org/1999/xlink" id="Capa_1" x="0px" y="0px"
     width="60px" height="60px" viewBox="0 0 60 60" xml:space="preserve"> <path fill="#007bff"
                                                                                d="M35.4,1v42.4h-5.7c-0.9,0-1.7-0.4-2.3-0.9c-0.6-0.6-0.9-1.4-0.9-2.3c0-1.3-0.6-2.5-1.7-3.2 c-5.4-3.5-8.9-9.6-8.9-16.5C15.9,9.9,24.5,1.1,35.1,1C35.3,1,35.3,1,35.4,1z"></path>
    <circle fill="#007bff" cx="35.3" cy="21.6" r="3.7"></circle>
    <path fill="#007bff" d="M30.4,54.1c0,2.8,2.3,5,5,5s5-2.3,5-5"></path>
    <path fill="#333333"
          d="M41.9,42.5h-5.5V26c2.1-0.4,3.7-2.3,3.7-4.5s-1.6-4.1-3.7-4.5V1c0-0.5-0.4-0.9-0.9-0.9c-0.1,0-0.2,0-0.3,0h0 c-3.5,0-6.9,1-9.9,2.7c-2.9,1.7-5.4,4.1-7.2,7c-0.3,0.4-0.1,1,0.3,1.2c0.4,0.3,1,0.1,1.2-0.3c3.3-5.3,8.9-8.6,15-8.9v15.2 c-2.1,0.4-3.7,2.3-3.7,4.5s1.6,4.1,3.7,4.5v16.5h-4.9c-0.6,0-1.2-0.2-1.6-0.7c-0.4-0.4-0.7-1-0.7-1.6c0-1.6-0.8-3.1-2.1-4 c-5.4-3.5-8.6-9.4-8.5-15.7c0-2.5,0.5-4.9,1.4-7.1c0.2-0.5,0-1-0.5-1.2c-0.5-0.2-1,0-1.2,0.5c-1,2.5-1.6,5.1-1.6,7.8 c0,7,3.5,13.4,9.3,17.2c0.8,0.5,1.3,1.5,1.3,2.5c0,1.1,0.4,2.1,1.2,2.9c0,0,0.1,0.1,0.1,0.1c-0.8,0.6-1.3,1.6-1.3,2.7v0.4 c0,1,0.4,1.9,1.1,2.5c-0.7,0.6-1.1,1.5-1.1,2.5v0.4c0,1.9,1.5,3.4,3.4,3.4h0.6c0.4,2.8,2.9,5,5.9,5c3,0,5.4-2.2,5.9-5h0.6 c1.9,0,3.4-1.5,3.4-3.4v-0.4c0-1-0.4-1.9-1.1-2.5c0.7-0.6,1.1-1.5,1.1-2.5v-0.4C45.2,44,43.7,42.5,41.9,42.5z M38.2,21.6 c0,1.2-0.8,2.3-1.9,2.6v-5.3C37.4,19.3,38.2,20.3,38.2,21.6z M32.7,21.6c0-1.2,0.8-2.3,1.9-2.6v5.3C33.5,23.8,32.7,22.8,32.7,21.6z M35.4,58.2c-2,0-3.6-1.4-4-3.3h8.1C39.1,56.8,37.4,58.2,35.4,58.2z M39.8,47.8c-0.5,0-0.9,0.4-0.9,0.9s0.4,0.9,0.9,0.9h2.1 c0.9,0,1.6,0.7,1.6,1.6v0.4c0,0.9-0.7,1.6-1.6,1.6H29c-0.9,0-1.6-0.7-1.6-1.6v-0.4c0-0.9,0.7-1.6,1.6-1.6h7.8c0.5,0,0.9-0.4,0.9-0.9 s-0.4-0.9-0.9-0.9H29c-0.9,0-1.6-0.7-1.6-1.6v-0.4c0-0.9,0.7-1.6,1.6-1.6h0.7c0,0,0,0,0,0h5.7h0h6.4c0.9,0,1.6,0.7,1.6,1.6v0.4 c0,0.9-0.7,1.6-1.6,1.6L39.8,47.8L39.8,47.8z"></path>
    <path fill="#333333"
          d="M55.2,16.5l-4.8-0.9c-0.6-1.4-1.3-2.7-2.3-4L49.7,7c0.1-0.4,0-0.9-0.4-1.1L42,1.7c-0.4-0.2-0.8-0.1-1.1,0.2 l-3.5,4.1c-0.3,0.4-0.3,0.9,0.1,1.3c0.4,0.3,0.9,0.3,1.3-0.1l3-3.6l6,3.5l-1.6,4.4c-0.1,0.3,0,0.6,0.2,0.9c1.1,1.3,1.9,2.7,2.5,4.3 c0.1,0.3,0.4,0.5,0.7,0.6l4.6,0.8V25l-4.6,0.8c-0.3,0.1-0.6,0.3-0.7,0.6c-0.6,1.6-1.4,3-2.5,4.3c-0.2,0.2-0.3,0.6-0.2,0.9l1.6,4.4 l-6,3.5l-3-3.6c-0.3-0.4-0.9-0.4-1.3-0.1s-0.4,0.9-0.1,1.3l3.5,4.1c0.2,0.2,0.4,0.3,0.7,0.3c0.2,0,0.3,0,0.4-0.1l7.3-4.2 c0.4-0.2,0.5-0.7,0.4-1.1l-1.7-4.6c0.9-1.2,1.7-2.5,2.3-4l4.8-0.9c0.4-0.1,0.7-0.4,0.7-0.9v-8.4C55.9,16.9,55.6,16.5,55.2,16.5z"></path>
    <path fill="#333333"
          d="M37.8,28.3c-0.5,0.2-0.7,0.7-0.5,1.1c0.1,0.4,0.5,0.6,0.8,0.6c0.1,0,0.2,0,0.3,0c3.6-1.2,6-4.6,6-8.4 s-2.4-7.2-6-8.4c-0.5-0.2-1,0.1-1.1,0.5c-0.2,0.5,0.1,1,0.5,1.1c2.9,1,4.8,3.7,4.8,6.7C42.6,24.6,40.6,27.3,37.8,28.3z"></path>
    <path fill="#333333"
          d="M11.7,17.7c0.4,0,0.8-0.3,0.9-0.7c0.1-0.5-0.2-0.9-0.7-1l-6.6-1.3c-0.5-0.1-0.9,0.2-1,0.7s0.2,0.9,0.7,1 l6.6,1.3C11.6,17.7,11.6,17.7,11.7,17.7z"></path>
    <path fill="#333333"
          d="M11.6,1.9l5,4.4c0.2,0.2,0.4,0.2,0.6,0.2c0.2,0,0.5-0.1,0.7-0.3c0.3-0.4,0.3-0.9-0.1-1.3l-5-4.4 c-0.4-0.3-0.9-0.3-1.3,0.1C11.2,1,11.3,1.5,11.6,1.9z"></path>
    <path fill="#333333"
          d="M20.1,39.1c-0.4-0.3-0.9-0.3-1.3,0.1l-4.4,5c-0.3,0.4-0.3,0.9,0.1,1.3c0.2,0.2,0.4,0.2,0.6,0.2 c0.2,0,0.5-0.1,0.7-0.3l4.4-5C20.5,40,20.4,39.4,20.1,39.1z"></path>
    <path fill="#333333"
          d="M12.2,28.5l-6.3,2.1c-0.5,0.2-0.7,0.7-0.6,1.1c0.1,0.4,0.5,0.6,0.8,0.6c0.1,0,0.2,0,0.3,0l6.3-2.1 c0.5-0.2,0.7-0.7,0.6-1.1C13.2,28.6,12.7,28.3,12.2,28.5z"></path> </svg> 