<?xml version="1.0" encoding="UTF-8"?> <!-- Generator: Adobe Illustrator 22.1.0, SVG Export Plug-In . SVG Version: 6.00 Build 0) -->
<svg xmlns="http://www.w3.org/2000/svg" xmlns:xlink="http://www.w3.org/1999/xlink" id="Capa_1" x="0px" y="0px"
     width="60px" height="60px" viewBox="0 0 60 60" xml:space="preserve"> <path fill="#007bff"
                                                                                d="M29.1,59h30V29L29.1,59z M52.8,52.7h-9.6l9.6-9.6L52.8,52.7L52.8,52.7z"></path>
    <rect x="21" y="15.3" transform="matrix(0.7071 -0.7071 0.7071 0.7071 -3.2945 30.1897)" fill="#007bff" width="27.6"
          height="7.5"></rect>
    <polygon fill="#007bff" points="19.5,34.3 23.3,33 20.9,30.5 "></polygon>
    <path fill="#333333"
          d="M53.1,42.3c-0.3-0.1-0.7-0.1-1,0.2l-9.6,9.6c-0.2,0.2-0.3,0.6-0.2,1c0.1,0.3,0.5,0.5,0.8,0.5h9.6 c0.5,0,0.9-0.4,0.9-0.9v-9.6C53.6,42.8,53.4,42.4,53.1,42.3z M51.9,51.9h-6.6l6.6-6.6V51.9L51.9,51.9z"></path>
    <path fill="#333333"
          d="M59.5,28.2c-0.3-0.1-0.7-0.1-1,0.2L55.9,31V13.1c0-0.5-0.4-0.9-0.9-0.9h-6.8l2.5-2.5l0,0l2.4-2.4 c0.5-0.5,0.8-1.2,0.8-1.9s-0.3-1.4-0.8-1.9l-2.8-2.7C49.8,0.3,49.1,0,48.4,0S47,0.3,46.5,0.8l-2.4,2.4l-2.9,2.9l-6.1,6.1H7.8V3.5 c0-0.5-0.4-0.9-0.9-0.9C3.1,2.6,0,5.7,0,9.5v37.4c0,0.1,0,0.1,0,0.2c0.1,1.6,0.8,3.1,2,4.3c1.3,1.2,2.9,1.9,4.7,1.9h26.9l-5.1,5.1 c-0.2,0.2-0.3,0.6-0.2,1s0.5,0.5,0.8,0.5h30c0.5,0,0.9-0.4,0.9-0.9V29C60,28.6,59.8,28.3,59.5,28.2z M44.8,5.1l4,4l-1.6,1.6l-4-4 L44.8,5.1z M47.7,2.1c0.4-0.4,0.9-0.4,1.3,0l2.7,2.7c0.4,0.4,0.4,0.9,0,1.3L50,7.9l-4-4L47.7,2.1z M31.3,58.1l5.1-5.1l0,0l2.3-2.3 l1.6-1.6c0.3-0.3,0.3-0.9,0-1.2c0,0-0.1-0.1-0.1-0.1c-0.3-0.2-0.8-0.2-1.1,0.1l-3.6,3.6H6.7c-2.7,0-4.8-2.1-4.9-4.7 c0-0.2,0-0.3,0-0.5l0,0c0-0.1,0-0.2,0-0.2c0,0,0,0,0,0c0-0.1,0-0.1,0-0.2c0,0,0,0,0-0.1c0-0.1,0-0.1,0-0.2c0,0,0-0.1,0-0.1 c0,0,0-0.1,0-0.1c0,0,0-0.1,0-0.1c0,0,0-0.1,0-0.1c0-0.1,0-0.1,0.1-0.2c0,0,0,0,0,0c0-0.1,0.1-0.1,0.1-0.2c0,0,0,0,0,0 c0.7-1.4,2-2.5,3.6-2.8h0c0.1,0,0.2,0,0.2,0c0,0,0,0,0,0c0.1,0,0.1,0,0.2,0c0,0,0,0,0.1,0c0.1,0,0.1,0,0.2,0c0,0,0,0,0.1,0 c0.1,0,0.2,0,0.3,0c0.5,0,0.9-0.4,0.9-0.9v-6.4c0-0.5-0.4-0.9-0.9-0.9S6,34,6,34.5v5.6c-1.5,0.2-2.9,0.9-4,1.9 c-0.1,0.1-0.2,0.2-0.3,0.4V9.5C1.8,7,3.6,4.9,6,4.4v8.6V31l0,0c0,0.5,0.4,0.9,0.9,0.9s0.9-0.4,0.9-0.9l0,0V14h25.6l-4.9,4.9 c-0.3,0.3-0.3,0.9,0,1.2c0.3,0.3,0.9,0.3,1.2,0l6.4-6.4l0,0l5.8-5.8l4,4l-0.5,0.5l0,0L27.7,30.2l-4-4l3.5-3.5c0.3-0.3,0.3-0.9,0-1.2 c-0.3-0.3-0.9-0.3-1.2,0l-4.1,4.1c0,0,0,0-0.1,0.1c0,0,0,0,0,0c0,0,0,0,0,0s0,0,0,0c0,0,0,0,0,0c0,0,0,0,0,0c0,0,0,0,0,0 c0,0,0,0,0,0l-1.7,4.9l-1.2,3.3c0,0,0,0.1,0,0.1h-2.9c-0.5,0-0.9,0.4-0.9,0.9s0.4,0.9,0.9,0.9h24.4c0.5,0,0.9-0.4,0.9-0.9 s-0.4-0.9-0.9-0.9H22.6l5.4-1.9h0c0,0,0,0,0.1,0c0,0,0,0,0,0c0,0,0,0,0.1,0c0,0,0,0,0,0c0,0,0,0,0.1,0l0,0c0,0,0,0,0.1-0.1L46.4,14 h7.7v18.8L41.5,45.4c-0.3,0.3-0.3,0.9,0,1.2c0,0,0,0,0.1,0.1c0.2,0.1,0.4,0.2,0.6,0.2s0.4-0.1,0.6-0.2c0,0,0,0,0.1-0.1l12.9-12.9 l0,0l2.6-2.6v7.8h-1.6c-0.5,0-0.9,0.4-0.9,0.9s0.4,0.9,0.9,0.9h1.6v2.6h-1.6c-0.5,0-0.9,0.4-0.9,0.9c0,0.5,0.4,0.9,0.9,0.9h1.6v2.6 h-1.6c-0.5,0-0.9,0.4-0.9,0.9c0,0.5,0.4,0.9,0.9,0.9h1.6v2.6h-1.6c-0.5,0-0.9,0.4-0.9,0.9c0,0.5,0.4,0.9,0.9,0.9h1.6v4.2L31.3,58.1 L31.3,58.1z M23.6,32l-1.7-1.7l0.9-2.5l3.3,3.3L23.6,32z"></path> </svg> 