<?xml version="1.0" encoding="UTF-8"?> <!-- Generator: Adobe Illustrator 22.1.0, SVG Export Plug-In . SVG Version: 6.00 Build 0) -->
<svg xmlns="http://www.w3.org/2000/svg" xmlns:xlink="http://www.w3.org/1999/xlink" id="Capa_1" x="0px" y="0px"
     width="60px" height="60px" viewBox="0 0 60 60" xml:space="preserve"> <path fill="#007bff"
                                                                                d="M14.4,10.2v11.9h11.3c1,0,1.9-0.8,1.9-1.8V10.2H14.4z"></path>
    <path fill="#007bff" d="M14.8,11v11.2H4.5c-1,0-1.8-0.8-1.8-1.8V11l6.1-6.1"></path>
    <path fill="#007bff"
          d="M55.3,50l-8.4,3.7c-1,0.4-2.2,0-2.6-1L43.5,51c-0.1-0.2-0.2-0.3-0.4-0.3L37.3,49c-1.2-0.3-1.9-1.6-1.6-2.8 c0.3-1.2,1.6-1.8,2.7-1.5l1.4,0.4c0.4,0.1,0.7-0.2,0.7-0.6c0-0.1,0-0.2,0-0.2c0,0,0-0.1,0-0.1c0,0,0-0.1-0.1-0.1l-4.1-9.5 c-0.5-1.1,0-2.4,1.1-2.9c0.1,0,0.2-0.1,0.2-0.1c1.1-0.4,2.3,0.2,2.8,1.3l3.9,9l6.2-2.7c1-0.4,2.2,0,2.6,1l3,6.8l0.2,0.4 C56.8,48.4,56.3,49.6,55.3,50z"></path>
    <path fill="#333333"
          d="M51.2,16.9c1.2,0,2.1,1,2.1,2.1c0,0.5,0.4,0.9,0.9,0.9s0.9-0.4,0.9-0.9c0-2.2-1.8-3.9-3.9-3.9 c-0.5,0-0.9,0.4-0.9,0.9C50.3,16.5,50.7,16.9,51.2,16.9z"></path>
    <path fill="#333333"
          d="M51.2,12c3.9,0,7.1,3.2,7.1,7.1c0,0.5,0.4,0.9,0.9,0.9c0.5,0,0.9-0.4,0.9-0.9c0-4.9-4-8.8-8.8-8.8 c-0.5,0-0.9,0.4-0.9,0.9S50.7,12,51.2,12z"></path>
    <path fill="#333333"
          d="M51.2,14.3c2.6,0,4.7,2.1,4.7,4.7c0,0.5,0.4,0.9,0.9,0.9c0.5,0,0.9-0.4,0.9-0.9c0-3.6-2.9-6.5-6.5-6.5 c-0.5,0-0.9,0.4-0.9,0.9C50.3,13.9,50.7,14.3,51.2,14.3z"></path>
    <path fill="#333333"
          d="M40.4,20.2H37c-0.5,0-0.9,0.4-0.9,0.9c0,0.5,0.4,0.9,0.9,0.9h3.4c0.5,0,0.9-0.4,0.9-0.9S40.9,20.2,40.4,20.2 z"></path>
    <circle fill="#333333" cx="43.3" cy="21.2" r="0.7"></circle>
    <path fill="#333333"
          d="M43,55.1h-5c-0.5,0-0.9,0.4-0.9,0.9c0,0.5,0.4,0.9,0.9,0.9h5c0.5,0,0.9-0.4,0.9-0.9 C43.9,55.5,43.5,55.1,43,55.1z"></path>
    <path fill="#333333"
          d="M59.9,52.8c-1-2.1-1-3-2.1-3.7c0.3-0.5,0.3-1.5,0-2.3l-3.1-7.2c-0.4-1-1.4-1.7-2.4-1.8V21.4 c0-2.3-1.8-4.1-4.1-4.1H32.9c-2.3,0-4.1,1.8-4.1,4.1v34.5c0,2.3,1.8,4.1,4.1,4.1h15.3c0.7,0,1.4-0.2,2-0.5l8.7-3.8 c0.5-0.2,1-0.7,1.2-1.2C60.2,54,60.2,53.4,59.9,52.8z M30.5,21.4c0-1.3,1-2.3,2.3-2.3h15.3c1.3,0,2.3,1,2.3,2.3v2.2H30.5V21.4z M30.5,25.4h19.9v12.9l-5,2.2L42,32.4c-0.7-1.5-2.4-2.3-4-1.8c-1.8,0.6-2.6,2.6-1.9,4.3l3.9,9l-0.7-0.2c-1.6-0.5-3.4,0.5-3.9,2.1 c-0.2,0.8-0.1,1.6,0.3,2.4c0.4,0.8,1.1,1.3,1.9,1.6l5.6,1.6c0,0,0.2,0.6,0.2,0.5h-13V25.4z M32.9,58.2c-1.3,0-2.3-1-2.3-2.3v-2.2h14 c0.3,0.3,0.6,0.5,1,0.7c-0.2,0.5-0.1,1.1,0.1,1.6l1,2.2H32.9z M46.3,52.7c-0.6-0.2-0.6-0.7-0.7-0.9c-0.5-0.9-0.5-1.9-1.6-2.2 L38.2,48c-0.3-0.1-0.6-0.3-0.8-0.6c-0.5-0.8,0.2-1.8,1.1-1.8c0.1,0,0.3,0,0.4,0l1.4,0.4c1.2,0.3,2.3-0.9,1.8-2.1 C42,43.5,42,43.6,42,43.6l-4.1-9.4c-0.1-0.3-0.1-0.7,0-1c0.5-1,1.9-1,2.4,0l3.9,8.9c0.2,0.5,0.8,0.7,1.2,0.5c0,0,6.2-2.7,6.2-2.7 c0.5-0.2,1.1,0,1.3,0.5c0,0.1-0.2-0.4,3.2,7.3c0.2,0.5,0,1.2-0.5,1.4C46.8,52.8,46.9,52.9,46.3,52.7z M58,54l-5.8,2.6 c-0.8,0.3-2.6,1.1-3.4,1.5c-0.2,0.1-0.3,0-0.4-0.2l-1.1-2.6c-0.1-0.3,0-0.6,0.3-0.7c9.4-4.1,8.8-3.9,9-3.9c0.2,0,0.4,0.1,0.5,0.3 l1.1,2.6C58.3,53.7,58.2,53.9,58,54z"></path>
    <path fill="#333333"
          d="M30.3,9.1c0-0.2,0.2-1.5-0.8-2.5l-5.9-5.9c-0.5-0.5-1.2-0.8-1.9-0.8c-14.4,0-13.6,0-13.7,0 C7.5,0,6.9,0.3,6.5,0.7c0,0,0,0,0,0L0.6,6.6C0.1,7.1-0.1,7.7-0.1,8.5s0.3,1.4,0.8,1.9C1,10.7,1.4,10.9,1.8,11v9.2 C1.8,21.8,3,23,4.5,23c10.7,0,10.3,0,10.3,0s-0.2,0,10.9,0c1.5,0,2.7-1.2,2.7-2.7v-9.2C29.5,11.1,30.3,10.2,30.3,9.1z M10.6,21.2 H6.7v-10c0-0.1,0.1-0.1,0.1-0.1h3.6c0.1,0,0.1,0.1,0.1,0.1C10.6,11.2,10.6,21.2,10.6,21.2z M13.9,21.2h-1.5v-10c0-1-0.8-1.9-1.9-1.9 H6.8c-1,0-1.9,0.8-1.9,1.9v10H4.5c-0.5,0-1-0.4-1-1v-9.3c0.3-0.1,0.6-0.3,0.9-0.6l4-4l4,4c0.4,0.4,0.9,0.7,1.5,0.8L13.9,21.2 L13.9,21.2z M14.9,9.1c-0.3,0.3-0.7,0.3-1,0.2c0,0-0.2-0.1-0.3-0.2L9,4.5c-0.3-0.3-0.9-0.4-1.2,0C7.7,4.6,7.7,4.6,3.2,9.1 C2.8,9.5,2.1,9.4,1.8,8.9C1.6,8.6,1.6,8.1,1.9,7.8L7.7,2c0.4-0.4,0.9-0.4,1.4,0c2,2,3.8,3.8,5.8,5.8C15.3,8.2,15.3,8.7,14.9,9.1z M26.7,20.3c0,0.5-0.4,1-1,1h-10V11.1h11L26.7,20.3L26.7,20.3z M26.7,9.3h-9.9c0.3-0.9,0.1-2-0.6-2.8l-4.9-4.9h10.5 c0.2,0,0.5,0.1,0.6,0.3l5.8,5.9c0.2,0.2,0.3,0.4,0.3,0.7C28.5,9.5,29,9.3,26.7,9.3z"></path>
    <circle fill="#333333" cx="9.6" cy="16.1" r="0.6"></circle>
    <path fill="#333333"
          d="M18.3,44.7v-6.2c0-2-1.6-3.6-3.6-3.6h-0.8c-0.5,0-0.9,0.4-0.9,0.9c0,0.5,0.4,0.9,0.9,0.9h0.8 c1,0,1.9,0.8,1.9,1.9v6.2c0,0.5,0.4,0.9,0.9,0.9C17.9,45.5,18.3,45.2,18.3,44.7z"></path>
    <path fill="#333333"
          d="M10.5,34.8c-0.8-0.2-1.4-1-1.4-1.8v-7.7c0-0.5-0.4-0.9-0.9-0.9s-0.9,0.4-0.9,0.9V33c0,1.7,1.1,3.1,2.7,3.5 c0.1,0,0.1,0,0.2,0c0.4,0,0.8-0.3,0.9-0.7C11.3,35.4,11,34.9,10.5,34.8z"></path>
    <path fill="#333333"
          d="M27,48.6h-6.9c-0.7,0-1.3-0.4-1.6-0.9c-0.2-0.4-0.8-0.6-1.2-0.3c-0.4,0.2-0.6,0.8-0.3,1.2 c0.6,1.1,1.8,1.8,3.1,1.8H27c0.5,0,0.9-0.4,0.9-0.9C27.9,49,27.5,48.6,27,48.6z"></path> </svg> 