<?xml version="1.0" encoding="UTF-8"?> <!-- Generator: Adobe Illustrator 22.1.0, SVG Export Plug-In . SVG Version: 6.00 Build 0) --> <svg xmlns="http://www.w3.org/2000/svg" xmlns:xlink="http://www.w3.org/1999/xlink" id="Layer_1" x="0px" y="0px" width="60px" height="60px" viewBox="0 0 60 60" xml:space="preserve"> <path fill="#333333" d="M7,31c-0.6,0-1-0.4-1-1C6,16.7,16.7,6,30,6c0.6,0,1,0.4,1,1s-0.4,1-1,1C17.8,8,8,17.8,8,30 C8,30.6,7.5,31,7,31z"></path> <path fill="#333333" d="M53,30.9c-0.6,0-1-0.4-1-1c0-0.3,0-0.6,0-1c0-0.6,0.4-1,0.9-1.1c0.6,0,1,0.4,1.1,0.9c0,0.4,0,0.7,0,1 c0,0.6-0.4,1-1,1L53,30.9L53,30.9z M52.4,25.9c-0.5,0-0.9-0.3-1-0.8c-0.1-0.3-0.2-0.6-0.2-0.9c-0.1-0.5,0.2-1.1,0.7-1.2 s1.1,0.2,1.2,0.7c0.1,0.3,0.2,0.7,0.2,1c0.1,0.5-0.2,1.1-0.8,1.2L52.4,25.9z M50.8,21.2c-0.4,0-0.7-0.2-0.9-0.6 c-0.1-0.3-0.3-0.6-0.4-0.9c-0.3-0.5-0.1-1.1,0.4-1.4c0.5-0.3,1.1-0.1,1.4,0.4c0,0,0,0,0,0c0.2,0.3,0.3,0.6,0.5,0.9 c0.2,0.5,0,1.1-0.5,1.3C51.1,21.2,51,21.2,50.8,21.2L50.8,21.2L50.8,21.2z M48.2,16.9c-0.3,0-0.6-0.1-0.8-0.4 c-0.2-0.3-0.4-0.5-0.6-0.7c-0.4-0.4-0.3-1.1,0.1-1.4s1.1-0.3,1.4,0.1c0.2,0.3,0.4,0.5,0.7,0.8c0.3,0.4,0.3,1.1-0.2,1.4 C48.6,16.9,48.4,16.9,48.2,16.9L48.2,16.9z M44.7,13.4c-0.2,0-0.5-0.1-0.6-0.2l-0.8-0.6c-0.4-0.3-0.5-1-0.2-1.4 c0.3-0.4,1-0.5,1.4-0.2l0.8,0.6c0.4,0.4,0.5,1,0.1,1.4C45.3,13.2,45,13.4,44.7,13.4C44.8,13.4,44.7,13.4,44.7,13.4z M40.6,10.6 c-0.2,0-0.3,0-0.5-0.1L39.3,10c-0.5-0.2-0.7-0.8-0.5-1.3C39,8.2,39.6,8,40.1,8.2L41,8.7c0.5,0.3,0.7,0.9,0.4,1.3 C41.3,10.4,40.9,10.6,40.6,10.6C40.5,10.6,40.6,10.6,40.6,10.6z M35.9,8.8c-0.1,0-0.2,0-0.3,0l-0.9-0.2c-0.6-0.1-0.9-0.7-0.8-1.2 s0.7-0.9,1.2-0.8l1,0.2c0.6,0.1,0.9,0.6,0.9,1.1S36.5,8.8,35.9,8.8L35.9,8.8z M31,8L31,8h-1c-0.6,0-1-0.4-1-1s0.4-1,1-1h1 c0.6,0,1,0.4,1,1S31.5,8,31,8z"></path> <path fill="#007bff" d="M47,30c0,9.4-7.6,17-17,17l0,0c-0.7,0-1.3,0-2-0.1c-9.3-1.1-16-9.6-14.9-18.9c0.9-7.8,7.1-13.9,14.9-14.9 c0.7-0.1,1.3-0.1,2-0.1C39.4,13,47,20.6,47,30z"></path> <path fill="#333333" d="M30,48c-9.9,0-18-8.1-18-18s8.1-18,18-18s18,8.1,18,18S39.9,48,30,48z M30,14c-8.8,0-16,7.2-16,16 s7.2,16,16,16s16-7.2,16-16S38.8,14,30,14z"></path> <path fill="#333333" d="M30,38c-4.4,0-8-3.6-8-8s3.6-8,8-8s8,3.6,8,8S34.4,38,30,38z M30,24c-3.3,0-6,2.7-6,6s2.7,6,6,6s6-2.7,6-6 S33.3,24,30,24z"></path> <path fill="#333333" d="M30,24c-0.6,0-1-0.4-1-1v-4c0-0.6,0.4-1,1-1c0.6,0,1,0.4,1,1v4C31,23.6,30.6,24,30,24z"></path> <path fill="#333333" d="M30,16c-0.6,0-1-0.4-1-1v-2c0-0.6,0.4-1,1-1c0.6,0,1,0.4,1,1v2C31,15.6,30.6,16,30,16z"></path> <path fill="#333333" d="M30,48c-0.6,0-1-0.4-1-1v-2c0-0.6,0.4-1,1-1c0.6,0,1,0.4,1,1v2C31,47.6,30.6,48,30,48z"></path> <path fill="#333333" d="M24.9,16.9c-0.4,0-0.8-0.3-0.9-0.7l-0.7-1.9c-0.2-0.5,0.1-1.1,0.6-1.3c0.5-0.2,1.1,0.1,1.2,0.6l0.7,1.9 c0.2,0.5-0.1,1.1-0.6,1.3C25.1,16.9,25,16.9,24.9,16.9z"></path> <path fill="#333333" d="M35.8,47c-0.4,0-0.8-0.3-0.9-0.7l-0.7-1.9c-0.2-0.5,0.1-1.1,0.6-1.3c0.5-0.2,1.1,0.1,1.2,0.6l0.7,1.9 c0.2,0.5-0.1,1.1-0.6,1.3C36,47,35.9,47,35.8,47z"></path> <path fill="#333333" d="M20.4,19.5c-0.3,0-0.6-0.1-0.8-0.4l-1.3-1.5c-0.4-0.4-0.3-1.1,0.1-1.4c0.4-0.4,1.1-0.3,1.4,0.1l1.3,1.5 c0.4,0.4,0.3,1.1-0.1,1.4C20.8,19.4,20.6,19.5,20.4,19.5L20.4,19.5z"></path> <path fill="#333333" d="M40.9,44c-0.3,0-0.6-0.1-0.8-0.4l-1.3-1.5c-0.4-0.4-0.3-1.1,0.1-1.4c0.4-0.4,1.1-0.3,1.4,0.1l1.3,1.5 c0.4,0.4,0.3,1.1-0.1,1.4C41.4,43.9,41.2,44,40.9,44z"></path> <path fill="#333333" d="M17,23.5c-0.2,0-0.4,0-0.5-0.1l-1.7-1c-0.5-0.3-0.7-0.9-0.4-1.3c0.3-0.5,0.9-0.7,1.3-0.4c0,0,0,0,0.1,0 l1.7,1c0.5,0.3,0.6,0.9,0.4,1.4C17.7,23.3,17.3,23.5,17,23.5z"></path> <path fill="#333333" d="M44.7,39.5c-0.2,0-0.4,0-0.5-0.1l-1.7-1c-0.5-0.3-0.6-0.9-0.3-1.4c0.3-0.4,0.8-0.6,1.3-0.4l1.7,1 c0.5,0.3,0.6,0.9,0.4,1.4C45.4,39.3,45.1,39.5,44.7,39.5L44.7,39.5L44.7,39.5z"></path> <path fill="#333333" d="M15.2,28.4h-0.2l-2-0.4c-0.6-0.1-0.9-0.6-0.8-1.2s0.6-0.9,1.2-0.8l2,0.4c0.6,0,1,0.5,0.9,1.1 C16.3,28,15.8,28.4,15.2,28.4L15.2,28.4L15.2,28.4z"></path> <path fill="#333333" d="M46.7,34h-0.2l-2-0.4c-0.6-0.1-0.9-0.6-0.8-1.2c0.1-0.6,0.6-0.9,1.2-0.8l2,0.4c0.6,0,1,0.5,0.9,1.1 C47.8,33.7,47.3,34,46.7,34L46.7,34z"></path> <path fill="#333333" d="M13.3,34c-0.6,0-1-0.4-1.1-0.9c0-0.6,0.4-1,0.9-1.1l2-0.4c0.6-0.1,1.1,0.3,1.2,0.8c0.1,0.6-0.3,1.1-0.8,1.2 l-2,0.4L13.3,34L13.3,34z"></path> <path fill="#333333" d="M44.8,28.4c-0.6,0-1-0.4-1.1-0.9c0-0.6,0.4-1,0.9-1.1l2-0.4c0.6-0.1,1.1,0.3,1.2,0.8 c0.1,0.6-0.3,1.1-0.8,1.2l-2,0.4L44.8,28.4L44.8,28.4z"></path> <path fill="#333333" d="M15.3,39.5c-0.6,0-1-0.4-1-1c0-0.4,0.2-0.7,0.5-0.9l1.7-1c0.5-0.3,1.1-0.1,1.3,0.4c0.2,0.5,0.1,1-0.4,1.3 l-1.7,1C15.6,39.4,15.5,39.5,15.3,39.5z"></path> <path fill="#333333" d="M43,23.5c-0.6,0-1-0.4-1-1c0-0.4,0.2-0.7,0.5-0.9l1.7-1c0.5-0.3,1.1-0.2,1.4,0.3s0.2,1.1-0.3,1.4 c0,0,0,0-0.1,0l-1.7,1C43.3,23.4,43.2,23.5,43,23.5z"></path> <path fill="#333333" d="M19.1,44c-0.6,0-1-0.5-1-1c0-0.2,0.1-0.5,0.2-0.6l1.3-1.5c0.4-0.4,1-0.5,1.4-0.1c0.4,0.4,0.5,1,0.1,1.4l0,0 l-1.3,1.5C19.7,43.9,19.4,44,19.1,44z"></path> <path fill="#333333" d="M39.6,19.5c-0.6,0-1-0.5-1-1c0-0.2,0.1-0.5,0.2-0.6l1.3-1.5c0.4-0.4,1-0.5,1.4-0.1c0.4,0.4,0.5,1,0.1,1.4 l-1.3,1.5C40.2,19.4,39.9,19.5,39.6,19.5z"></path> <path fill="#333333" d="M24.2,47c-0.1,0-0.2,0-0.3-0.1c-0.5-0.2-0.8-0.8-0.6-1.3l0.7-1.9c0.2-0.5,0.8-0.8,1.3-0.6 c0.5,0.2,0.8,0.7,0.6,1.2l-0.7,1.9C25,46.7,24.6,47,24.2,47z"></path> <path fill="#333333" d="M35.1,16.9c-0.1,0-0.2,0-0.3-0.1c-0.5-0.2-0.8-0.8-0.6-1.3l0.7-1.9c0.2-0.5,0.8-0.8,1.3-0.6 c0.5,0.2,0.8,0.7,0.6,1.2l-0.7,1.9C35.9,16.6,35.6,16.9,35.1,16.9z"></path> <path fill="#333333" d="M55,60H5c-2.8,0-5-2.2-5-5V5c0-2.8,2.2-5,5-5h50c2.8,0,5,2.2,5,5v50C60,57.8,57.8,60,55,60z M5,2 C3.4,2,2,3.4,2,5v50c0,1.7,1.3,3,3,3l0,0h50c1.7,0,3-1.3,3-3l0,0V5c0-1.7-1.3-3-3-3H5z"></path> <circle fill="#007bff" cx="52" cy="52" r="3"></circle> <path fill="#333333" d="M52,56c-2.2,0-4-1.8-4-4c0-2.2,1.8-4,4-4c2.2,0,4,1.8,4,4C56,54.2,54.2,56,52,56z M52,50c-1.1,0-2,0.9-2,2 c0,1.1,0.9,2,2,2c1.1,0,2-0.9,2-2S53.1,50,52,50z"></path> <path fill="#333333" d="M6,56H5.8l-0.2-0.1c-0.1,0-0.1,0-0.2-0.1l-0.2-0.1c-0.1-0.1-0.2-0.2-0.2-0.3C5,55.3,5,55.1,5,55 c0-0.3,0.1-0.5,0.3-0.7l0.2-0.1c0.1,0,0.1-0.1,0.2-0.1C5.7,54,5.7,54,5.8,54c0.1,0,0.3,0,0.4,0c0.1,0,0.1,0,0.2,0.1 c0.1,0,0.1,0,0.2,0.1l0.2,0.1C6.9,54.5,7,54.7,7,55c0,0.1,0,0.3-0.1,0.4c0,0.1-0.1,0.2-0.2,0.3l-0.2,0.1c0,0-0.1,0.1-0.2,0.1 c-0.1,0-0.1,0-0.2,0.1L6,56z"></path> <path fill="#333333" d="M22,56H9c-0.6,0-1-0.4-1-1c0-0.6,0.4-1,1-1h13c0.6,0,1,0.4,1,1C23,55.5,22.5,56,22,56z"></path> </svg> 