<?xml version="1.0" encoding="UTF-8"?> <!-- Generator: Adobe Illustrator 22.1.0, SVG Export Plug-In . SVG Version: 6.00 Build 0) --> <svg xmlns="http://www.w3.org/2000/svg" xmlns:xlink="http://www.w3.org/1999/xlink" id="Layer_1" x="0px" y="0px" width="60px" height="60px" viewBox="0 0 60 60" xml:space="preserve"> <polygon fill="#007bff" points="43.6,41.1 30,49.5 16.8,40.9 29.7,32.6 "></polygon> <path fill="#333333" d="M0.7,28.6l17.1,10.2l-2.1,1.4c-0.4,0.2-0.6,0.6-0.6,1.1c0,0.4,0.2,0.8,0.6,1.1L29.4,51 c0.4,0.3,0.9,0.3,1.3,0l13.7-8.7c0.4-0.2,0.6-0.6,0.6-1.1c0-0.4-0.2-0.8-0.6-1.1l-2.1-1.4l17.1-10.2c0.4-0.2,0.6-0.6,0.6-1.1 c0-0.4-0.2-0.8-0.6-1.1L30.7,8.9c-0.2-0.1-0.4-0.2-0.6-0.2c-0.2,0-0.4,0.1-0.6,0.2L0.7,26.4c-0.4,0.2-0.6,0.6-0.6,1.1 C0.1,27.9,0.3,28.3,0.7,28.6z M30,48.5l-11.4-7.3L30,34l11.4,7.3L30,48.5z M40,37.3l-9.2-5.9c-0.2-0.1-0.4-0.2-0.7-0.2 c-0.2,0-0.5,0.1-0.7,0.2l-9.2,5.9l-1.6-1L30,29l11.6,7.4L40,37.3z M56.3,27.5L44,34.9l-11.6-7.4L44.1,20L56.3,27.5z M30,11.5 l11.7,7.1L30,26l-11.7-7.4L30,11.5z M16,20l11.7,7.5l-11.6,7.4L3.8,27.5L16,20z"></path> </svg> 