<?xml version="1.0" encoding="UTF-8"?> <!-- Generator: Adobe Illustrator 22.1.0, SVG Export Plug-In . SVG Version: 6.00 Build 0) --> <svg xmlns="http://www.w3.org/2000/svg" xmlns:xlink="http://www.w3.org/1999/xlink" id="Layer_1" x="0px" y="0px" width="60px" height="60px" viewBox="0 0 60 60" xml:space="preserve"> <path fill="#007bff" d="M27.2,14.8v-1.8c0-0.8-0.7-1.5-1.5-1.5H13.3c-0.8,0-1.5,0.7-1.5,1.5v1.8L27.2,14.8L27.2,14.8z"></path> <g> <path fill="#007bff" d="M3.3,56v1.6c0,0.8,0.7,1.5,1.5,1.5h4.9c0.8,0,1.5-0.7,1.5-1.5V56H3.3z"></path> <path fill="#007bff" d="M27.7,56v1.6c0,0.8,0.7,1.5,1.5,1.5h4.9c0.8,0,1.5-0.7,1.5-1.5V56H27.7z"></path> </g> <path fill="#007bff" d="M29.5,26.8h8.6v-9.9c0-0.8-0.7-1.5-1.5-1.5H2.4c-0.8,0-1.5,0.7-1.5,1.5v9.9h25.4"></path> <circle fill="#007bff" cx="30.4" cy="49.7" r="2.4"></circle> <path fill="#007bff" d="M53.1,24.5V19c0-0.8-0.7-1.5-1.5-1.5h-0.8c-0.8,0-1.5,0.7-1.5,1.5v21.8c0,0.8,0.7,1.5,1.5,1.5h0.8 c0.8,0,1.5-0.7,1.5-1.5V27.6"></path> <path fill="#007bff" d="M49.3,34.6v6.1c0,0.8,0.7,1.5,1.5,1.5h0.8c0.8,0,1.5-0.7,1.5-1.5v-6.1H49.3L49.3,34.6z"></path> <path fill="#007bff" d="M48.4,14.7c0,0.8-0.7,1.5-1.5,1.5l0,0c-0.8,0-1.5-0.7-1.5-1.5v-3.3c0-0.8,0.7-1.5,1.5-1.5l0,0 c0.8,0,1.5,0.7,1.5,1.5V14.7z"></path> <g> <path fill="#333333" d="M60,0.4c-0.3-0.5-0.8-0.6-1.3-0.4l-7.6,4.3c-0.3,0.2-0.5,0.5-0.5,0.8v7h-1.2v-0.7c0-1.4-1.1-2.5-2.5-2.5 c-1.4,0-2.5,1.1-2.5,2.5v3.3c0,1.4,1.1,2.5,2.5,2.5c1.4,0,2.5-1.1,2.5-2.5V14h1.2v2.5c-1.3,0.1-2.3,1.2-2.3,2.5v15.6v6.1 c0,1.2,0.8,2.1,1.9,2.4c-0.2,3.1-2.7,5.6-5.9,5.6H39v-22v-9.9c0-1.4-1.1-2.5-2.5-2.5h-8.4v-1.4c0-1.4-1.1-2.5-2.5-2.5H13.3 c-1.4,0-2.5,1.1-2.5,2.5v1.4H2.4c-1.4,0-2.5,1.1-2.5,2.5v9.9v27.7c0,1.3,1,2.4,2.4,2.5v0.6c0,1.4,1.1,2.5,2.5,2.5h4.9 c1.4,0,2.5-1.1,2.5-2.5v-0.6h1.2c0.5,0,1-0.4,1-1c0-0.5-0.4-1-1-1h-2.2h-8H2.4c-0.3,0-0.6-0.3-0.6-0.6V27.7h24.5c0.5,0,1-0.4,1-1 s-0.4-1-1-1H1.9v-9c0-0.3,0.3-0.6,0.6-0.6h34.1c0.3,0,0.6,0.3,0.6,0.6v9h-7.6c-0.5,0-1,0.4-1,1s0.4,1,1,1h7.6v21.1h-3.5 c-0.4-1.4-1.7-2.4-3.2-2.4c-1.9,0-3.4,1.5-3.4,3.4c0,1.9,1.5,3.4,3.4,3.4c1.5,0,2.8-1,3.2-2.4h3.5v3.8c0,0.3-0.3,0.6-0.6,0.6h-0.8 h-8H16.5c-0.5,0-1,0.4-1,1c0,0.5,0.4,1,1,1h10.3v0.6c0,1.4,1.1,2.5,2.5,2.5h4.9c1.4,0,2.5-1.1,2.5-2.5v-0.6 c1.3-0.1,2.4-1.1,2.4-2.5v-3.8h5.3c4.2,0,7.6-3.3,7.8-7.5c1.1-0.3,1.9-1.2,1.9-2.4v-6.1v-7.1c0-0.5-0.4-1-1-1c-0.5,0-1,0.4-1,1v6.1 h-1.9V19c0-0.3,0.3-0.6,0.6-0.6h0.8c0.3,0,0.6,0.3,0.6,0.6v5.5c0,0.5,0.4,1,1,1c0.5,0,1-0.4,1-1V19c0-1-0.6-1.9-1.5-2.3V14h0.6 c0.5,0,1-0.4,1-1s-0.4-1-1-1h-0.6V5.7l7.1-4C60.1,1.4,60.2,0.8,60,0.4z M47.5,14.7c0,0.3-0.3,0.6-0.6,0.6c-0.3,0-0.6-0.3-0.6-0.6 v-3.3c0-0.3,0.3-0.6,0.6-0.6s0.6,0.3,0.6,0.6V14.7z M12.8,12.9c0-0.3,0.3-0.6,0.6-0.6h12.3c0.3,0,0.6,0.3,0.6,0.6v0.9H12.8V12.9z M10.3,56.9v0.6c0,0.3-0.3,0.6-0.6,0.6H4.8c-0.3,0-0.6-0.3-0.6-0.6v-0.6H10.3z M30.4,51.2c-0.8,0-1.5-0.7-1.5-1.5 c0-0.8,0.7-1.5,1.5-1.5c0.4,0,0.8,0.2,1.1,0.5h-1.1c-0.5,0-1,0.4-1,1c0,0.5,0.4,1,1,1h1.1C31.2,51,30.8,51.2,30.4,51.2z M34.8,57.5 c0,0.3-0.3,0.6-0.6,0.6h-4.9c-0.3,0-0.6-0.3-0.6-0.6v-0.6h6.1L34.8,57.5L34.8,57.5z M52.1,35.6v5.2c0,0.3-0.3,0.6-0.6,0.6h-0.8 c-0.3,0-0.6-0.3-0.6-0.6v-5.2H52.1z"></path> <path fill="#333333" d="M32.4,21.1c0-1.9-1.5-3.4-3.4-3.4c-1.9,0-3.4,1.5-3.4,3.4c0,1.9,1.5,3.4,3.4,3.4S32.4,22.9,32.4,21.1z M27.6,21.1c0-0.8,0.7-1.5,1.5-1.5s1.5,0.7,1.5,1.5c0,0.8-0.7,1.5-1.5,1.5S27.6,21.9,27.6,21.1z"></path> <path fill="#333333" d="M16.1,21.1c0,1.9,1.5,3.4,3.4,3.4c1.9,0,3.4-1.5,3.4-3.4c0-1.9-1.5-3.4-3.4-3.4 C17.6,17.7,16.1,19.2,16.1,21.1z M20.9,21.1c0,0.8-0.7,1.5-1.5,1.5c-0.8,0-1.5-0.7-1.5-1.5c0-0.8,0.7-1.5,1.5-1.5 C20.2,19.6,20.9,20.3,20.9,21.1z"></path> <path fill="#333333" d="M6.5,21.1c0,1.9,1.5,3.4,3.4,3.4s3.4-1.5,3.4-3.4c0-1.9-1.5-3.4-3.4-3.4S6.5,19.2,6.5,21.1z M11.3,21.1 c0,0.8-0.7,1.5-1.5,1.5c-0.8,0-1.5-0.7-1.5-1.5c0-0.8,0.7-1.5,1.5-1.5C10.7,19.6,11.3,20.3,11.3,21.1z"></path> <path fill="#333333" d="M7.7,34.2h14.7c0.5,0,1-0.4,1-1c0-0.5-0.4-1-1-1H7.7c-0.5,0-1,0.4-1,1C6.8,33.8,7.2,34.2,7.7,34.2z"></path> <path fill="#333333" d="M7.7,38.2h14.7c0.5,0,1-0.4,1-1c0-0.5-0.4-1-1-1H7.7c-0.5,0-1,0.4-1,1C6.8,37.8,7.2,38.2,7.7,38.2z"></path> <path fill="#333333" d="M7.7,42.2h14.7c0.5,0,1-0.4,1-1c0-0.5-0.4-1-1-1H7.7c-0.5,0-1,0.4-1,1C6.8,41.8,7.2,42.2,7.7,42.2z"></path> <path fill="#333333" d="M7.7,46.2h14.7c0.5,0,1-0.4,1-1c0-0.5-0.4-1-1-1H7.7c-0.5,0-1,0.4-1,1C6.8,45.8,7.2,46.2,7.7,46.2z"></path> <path fill="#333333" d="M7.7,50.3h14.7c0.5,0,1-0.4,1-1c0-0.5-0.4-1-1-1H7.7c-0.5,0-1,0.4-1,1C6.8,49.8,7.2,50.3,7.7,50.3z"></path> <path fill="#333333" d="M28.7,44.2h3.4c0.5,0,1-0.4,1-1c0-0.5-0.4-1-1-1h-3.4c-0.5,0-1,0.4-1,1C27.7,43.8,28.2,44.2,28.7,44.2z"></path> <path fill="#333333" d="M32.1,38.3h-3.4c-0.5,0-1,0.4-1,1c0,0.5,0.4,1,1,1h3.4c0.5,0,1-0.4,1-1C33.1,38.8,32.6,38.3,32.1,38.3z"></path> <path fill="#333333" d="M32.1,34.3h-3.4c-0.5,0-1,0.4-1,1c0,0.5,0.4,1,1,1h3.4c0.5,0,1-0.4,1-1C33.1,34.7,32.6,34.3,32.1,34.3z"></path> </g> </svg> 