<?xml version="1.0" encoding="UTF-8"?> <!-- Generator: Adobe Illustrator 22.1.0, SVG Export Plug-In . SVG Version: 6.00 Build 0) --> <svg xmlns="http://www.w3.org/2000/svg" xmlns:xlink="http://www.w3.org/1999/xlink" id="Capa_1" x="0px" y="0px" width="60px" height="60px" viewBox="0 0 60 60" xml:space="preserve"> <path fill="#007bff" d="M50.9,14.2H15.5c-1,0-1.8-0.8-1.8-1.8l0,0c0-1,0.8-1.8,1.8-1.8h35.4c1,0,1.8,0.8,1.8,1.8l0,0 C52.7,13.4,51.9,14.2,50.9,14.2z"></path> <path fill="#007bff" d="M50.9,17.7H15.5c-1,0-1.8-0.8-1.8-1.8l0,0c0-1,0.8-1.8,1.8-1.8h35.4c1,0,1.8,0.8,1.8,1.8l0,0 C52.7,16.9,51.9,17.7,50.9,17.7z"></path> <path fill="#007bff" d="M50.9,21.2H15.5c-1,0-1.8-0.8-1.8-1.8l0,0c0-1,0.8-1.8,1.8-1.8h35.4c1,0,1.8,0.8,1.8,1.8l0,0 C52.7,20.4,51.9,21.2,50.9,21.2z"></path> <path fill="#007bff" d="M50.9,24.7H15.5c-1,0-1.8-0.8-1.8-1.8l0,0c0-1,0.8-1.8,1.8-1.8h35.4c1,0,1.8,0.8,1.8,1.8l0,0 C52.7,23.9,51.9,24.7,50.9,24.7z"></path> <path fill="#007bff" d="M50.9,28.2H15.5c-1,0-1.8-0.8-1.8-1.8l0,0c0-1,0.8-1.8,1.8-1.8h35.4c1,0,1.8,0.8,1.8,1.8l0,0 C52.7,27.5,51.9,28.2,50.9,28.2z"></path> <path fill="#007bff" d="M50.9,31.8H15.5c-1,0-1.8-0.8-1.8-1.8l0,0c0-1,0.8-1.8,1.8-1.8h35.4c1,0,1.8,0.8,1.8,1.8l0,0 C52.7,31,51.9,31.8,50.9,31.8z"></path> <path fill="#007bff" d="M50.9,35.3H15.5c-1,0-1.8-0.8-1.8-1.8l0,0c0-1,0.8-1.8,1.8-1.8h35.4c1,0,1.8,0.8,1.8,1.8l0,0 C52.7,34.5,51.9,35.3,50.9,35.3z"></path> <path fill="#007bff" d="M50.9,38.8H5.7c-1,0-1.8-0.8-1.8-1.8l0,0c0-1,0.8-1.8,1.8-1.8h45.2c1,0,1.8,0.8,1.8,1.8l0,0 C52.7,38,51.9,38.8,50.9,38.8z"></path> <path fill="#007bff" d="M50.9,42.3H15.5c-1,0-1.8-0.8-1.8-1.8l0,0c0-1,0.8-1.8,1.8-1.8h35.4c1,0,1.8,0.8,1.8,1.8l0,0 C52.7,41.5,51.9,42.3,50.9,42.3z"></path> <path fill="#007bff" d="M50.9,45.8H15.5c-1,0-1.8-0.8-1.8-1.8l0,0c0-1,0.8-1.8,1.8-1.8h35.4c1,0,1.8,0.8,1.8,1.8l0,0 C52.7,45,51.9,45.8,50.9,45.8z"></path> <path id="SVGCleanerId_0" fill="#CCCCCC" d="M50.9,45.8h-3.5c1,0,1.8,0.8,1.8,1.8s-0.8,1.8-1.8,1.8h3.5c1,0,1.8-0.8,1.8-1.8 S51.9,45.8,50.9,45.8z"></path> <path fill="#007bff" d="M50.9,49.3H15.5c-1,0-1.8-0.8-1.8-1.8l0,0c0-1,0.8-1.8,1.8-1.8h35.4c1,0,1.8,0.8,1.8,1.8l0,0 C52.7,48.6,51.9,49.3,50.9,49.3z"></path> <path fill="#333333" d="M54.3,54.7h-2.6v-4.6c1.1-0.3,1.9-1.3,1.9-2.5c0-0.7-0.3-1.3-0.7-1.8c0.4-0.5,0.7-1.1,0.7-1.8 s-0.3-1.3-0.7-1.8c0.4-0.5,0.7-1.1,0.7-1.8s-0.3-1.3-0.7-1.8c0.4-0.5,0.7-1.1,0.7-1.8s-0.3-1.3-0.7-1.8c0.4-0.5,0.7-1.1,0.7-1.8 s-0.3-1.3-0.7-1.8c0.4-0.5,0.7-1.1,0.7-1.8s-0.3-1.3-0.7-1.8c0.4-0.5,0.7-1.1,0.7-1.8s-0.3-1.3-0.7-1.8c0.4-0.5,0.7-1.1,0.7-1.8 s-0.3-1.3-0.7-1.8c0.4-0.5,0.7-1.1,0.7-1.8s-0.3-1.3-0.7-1.8c0.4-0.5,0.7-1.1,0.7-1.8s-0.3-1.3-0.7-1.8c0.4-0.5,0.7-1.1,0.7-1.8 c0-1.2-0.8-2.2-1.9-2.5V9.4c0-0.5-0.4-0.9-0.9-0.9s-0.9,0.4-0.9,0.9v0.4H23.2c-0.5,0-0.9,0.4-0.9,0.9s0.4,0.9,0.9,0.9h27.7 c0.5,0,0.9,0.4,0.9,0.9s-0.4,0.9-0.9,0.9H15.5c-0.5,0-0.9-0.4-0.9-0.9s0.4-0.9,0.9-0.9h3.9c0.5,0,0.9-0.4,0.9-0.9s-0.4-0.9-0.9-0.9 h-2.9V5.3h33.4v0.3c0,0.5,0.4,0.9,0.9,0.9s0.9-0.4,0.9-0.9V5.3h2.6c1.5,0,2.6-1.2,2.6-2.6S55.8,0,54.3,0H12.1 c-1.5,0-2.6,1.2-2.6,2.6s1.2,2.6,2.6,2.6h2.6v4.6c-1.1,0.3-1.9,1.3-1.9,2.5c0,0.7,0.3,1.3,0.7,1.8c-0.4,0.5-0.7,1.1-0.7,1.8 s0.3,1.3,0.7,1.8c-0.4,0.5-0.7,1.1-0.7,1.8s0.3,1.3,0.7,1.8c-0.4,0.5-0.7,1.1-0.7,1.8s0.3,1.3,0.7,1.8c-0.4,0.5-0.7,1.1-0.7,1.8 s0.3,1.3,0.7,1.8c-0.4,0.5-0.7,1.1-0.7,1.8c0,0.7,0.3,1.3,0.7,1.8c-0.4,0.5-0.7,1.1-0.7,1.8c0,0.3,0.1,0.6,0.2,0.9H5.7 C4.2,34.4,3,35.6,3,37s1.2,2.6,2.6,2.6H13c-0.1,0.3-0.2,0.6-0.2,0.9c0,0.7,0.3,1.3,0.7,1.8c-0.4,0.5-0.7,1.1-0.7,1.8 s0.3,1.3,0.7,1.8c-0.4,0.5-0.7,1.1-0.7,1.8c0,1.2,0.8,2.2,1.9,2.5v4.6h-2.6c-1.5,0-2.6,1.2-2.6,2.6s1.2,2.6,2.6,2.6h42.2 c1.5,0,2.6-1.2,2.6-2.6S55.8,54.7,54.3,54.7z M11.3,2.6c0-0.5,0.4-0.9,0.9-0.9h42.2c0.5,0,0.9,0.4,0.9,0.9s-0.4,0.9-0.9,0.9l0,0 H12.1l0,0C11.6,3.5,11.3,3.1,11.3,2.6z M14.6,44.1c0-0.5,0.4-0.9,0.9-0.9h35.4c0.5,0,0.9,0.4,0.9,0.9s-0.4,0.9-0.9,0.9H15.5 C15,44.9,14.6,44.5,14.6,44.1z M14.6,30c0-0.5,0.4-0.9,0.9-0.9h35.4c0.5,0,0.9,0.4,0.9,0.9s-0.4,0.9-0.9,0.9H15.5 C15,30.9,14.6,30.5,14.6,30z M14.6,26.5c0-0.5,0.4-0.9,0.9-0.9h35.4c0.5,0,0.9,0.4,0.9,0.9s-0.4,0.9-0.9,0.9H15.5 C15,27.4,14.6,27,14.6,26.5z M14.6,23c0-0.5,0.4-0.9,0.9-0.9h35.4c0.5,0,0.9,0.4,0.9,0.9s-0.4,0.9-0.9,0.9H15.5 C15,23.8,14.6,23.4,14.6,23z M14.6,19.5c0-0.5,0.4-0.9,0.9-0.9h35.4c0.5,0,0.9,0.4,0.9,0.9s-0.4,0.9-0.9,0.9H15.5 C15,20.3,14.6,19.9,14.6,19.5z M50.9,15.1c0.5,0,0.9,0.4,0.9,0.9c0,0.5-0.4,0.9-0.9,0.9H15.5c-0.5,0-0.9-0.4-0.9-0.9 c0-0.5,0.4-0.9,0.9-0.9H50.9z M14.6,33.5c0-0.5,0.4-0.9,0.9-0.9h35.4c0.5,0,0.9,0.4,0.9,0.9s-0.4,0.9-0.9,0.9H15.5 C15,34.4,14.6,34,14.6,33.5z M4.8,37c0-0.5,0.4-0.9,0.9-0.9l0,0h45.2c0.5,0,0.9,0.4,0.9,0.9s-0.4,0.9-0.9,0.9H5.7l0,0 C5.2,37.9,4.8,37.5,4.8,37z M50.9,39.7c0.5,0,0.9,0.4,0.9,0.9s-0.4,0.9-0.9,0.9H15.5c-0.5,0-0.9-0.4-0.9-0.9s0.4-0.9,0.9-0.9H50.9z M16.5,50.2H42c0.5,0,0.9-0.4,0.9-0.9s-0.4-0.9-0.9-0.9H15.5c-0.5,0-0.9-0.4-0.9-0.9s0.4-0.9,0.9-0.9h35.4c0.5,0,0.9,0.4,0.9,0.9 s-0.4,0.9-0.9,0.9h-5.2c-0.5,0-0.9,0.4-0.9,0.9s0.4,0.9,0.9,0.9h4.2v4.5H16.5V50.2z M54.3,58.2H12.1c-0.5,0-0.9-0.4-0.9-0.9 s0.4-0.9,0.9-0.9l0,0h42.2l0,0c0.5,0,0.9,0.4,0.9,0.9S54.8,58.2,54.3,58.2z"></path> </svg> 