<?xml version="1.0" encoding="UTF-8"?> <!-- Generator: Adobe Illustrator 22.1.0, SVG Export Plug-In . SVG Version: 6.00 Build 0) --> <svg xmlns="http://www.w3.org/2000/svg" xmlns:xlink="http://www.w3.org/1999/xlink" id="Capa_1" x="0px" y="0px" width="60px" height="60px" viewBox="0 0 60 60" xml:space="preserve"> <path fill="#007bff" d="M36.5,38.4H23.4c-1,0-1.9-0.8-1.9-1.9V23.4c0-1,0.8-1.9,1.9-1.9h13.2c1,0,1.9,0.8,1.9,1.9v13.2 C38.4,37.6,37.6,38.4,36.5,38.4z"></path> <g> <circle fill="#007bff" cx="3.7" cy="24.3" r="3.8"></circle> <circle fill="#007bff" cx="56.3" cy="35.6" r="3.8"></circle> </g> <path fill="#333333" d="M31.9,29.1h-2.5l1.4-3.5c0.2-0.4,0-1-0.5-1.1c-0.4-0.2-1,0-1.1,0.5l-1.9,4.7c-0.1,0.3-0.1,0.6,0.1,0.8 c0.2,0.2,0.4,0.4,0.7,0.4h2.5l-1.4,3.5c-0.2,0.4,0,1,0.5,1.1c0.1,0,0.2,0.1,0.3,0.1c0.4,0,0.7-0.2,0.8-0.6l1.9-4.7 c0.1-0.3,0.1-0.6-0.1-0.8C32.4,29.2,32.1,29.1,31.9,29.1z"></path> <path fill="#333333" d="M55.2,4.9c-3.1-3.2-7.3-5-11.7-5C39-0.2,34.8,1.5,31.5,4.7c-3.3,3.3-5.2,7.8-5.2,12.5v3.4h-2.9 c-1.5,0-2.8,1.2-2.8,2.8v13.2c0,1.5,1.2,2.8,2.8,2.8h2.9v3.8c0,2.7-1.1,5.2-3.1,7c-2,1.8-4.6,2.7-7.3,2.4c-4.8-0.4-8.6-4.7-8.6-9.7 c0-0.5-0.4-0.9-0.9-0.9s-0.9,0.4-0.9,0.9c0,2.8,1,5.6,2.9,7.7c1.9,2.2,4.5,3.5,7.3,3.8c0.4,0,0.7,0,1.1,0c2.8,0,5.4-1,7.5-2.9 c2.3-2.1,3.7-5.2,3.7-8.3v-3.8h3.9v3.4c0,4.2-1.7,8.3-4.7,11.2c-2.9,2.9-6.7,4.4-10.7,4.3c-4-0.1-7.7-1.7-10.5-4.5 c-2.8-2.9-4.3-6.6-4.3-10.6V30.9c0,0,0-0.1,0.1-0.1h3.8c0,0,0.1,0,0.1,0.1V39c0,0.5,0.4,0.9,0.9,0.9s0.9-0.4,0.9-0.9v-8.1 c0-1-0.8-1.8-1.8-1.8h-1v-4.8c0-0.5-0.4-0.9-0.9-0.9s-0.9,0.4-0.9,0.9v4.8h-1c-1,0-1.8,0.8-1.8,1.8v12.2c0,4.5,1.7,8.7,4.9,11.8 c3.1,3.2,7.3,5,11.7,5c0.1,0,0.2,0,0.3,0c4.3,0,8.5-1.7,11.6-4.9c3.3-3.3,5.2-7.8,5.2-12.5v-3.4h2.9c1.5,0,2.8-1.2,2.8-2.8V23.4 c0-1.5-1.2-2.8-2.8-2.8h-2.9v-3.8c0-2.7,1.1-5.2,3.1-7c2-1.8,4.6-2.7,7.3-2.4c4.8,0.4,8.6,4.7,8.6,9.7c0,0.5,0.4,0.9,0.9,0.9 c0.5,0,0.9-0.4,0.9-0.9c0-2.8-1-5.6-2.9-7.7c-1.9-2.2-4.5-3.5-7.3-3.8C41,5.3,38,6.3,35.6,8.5c-2.3,2.1-3.7,5.2-3.7,8.3v3.8H28v-3.4 C28,13,29.8,8.9,32.8,6c2.9-2.9,6.7-4.4,10.7-4.3c4,0.1,7.7,1.7,10.5,4.5c2.8,2.9,4.3,6.6,4.3,10.6V29c0,0,0,0.1-0.1,0.1h-3.8 c0,0-0.1,0-0.1-0.1v-8.1c0-0.5-0.4-0.9-0.9-0.9c-0.5,0-0.9,0.4-0.9,0.9V29c0,1,0.8,1.8,1.8,1.8h1v4.8c0,0.5,0.4,0.9,0.9,0.9 c0.5,0,0.9-0.4,0.9-0.9v-4.8h1c1,0,1.8-0.8,1.8-1.8V16.8C60,12.3,58.3,8.1,55.2,4.9z M37.6,23.4v13.2c0,0.6-0.4,1-1,1H23.4 c-0.6,0-1-0.4-1-1V23.4c0-0.6,0.4-1,1-1h13.2C37.1,22.4,37.6,22.8,37.6,23.4z"></path> <path fill="#333333" d="M0.9,21.9c0.2,0.3,0.5,0.5,0.8,0.5c0.1,0,0.3,0,0.4-0.1c0.4-0.2,0.6-0.8,0.4-1.2l-0.9-1.9 c-0.2-0.4-0.8-0.6-1.2-0.4C0,19-0.2,19.5,0,20L0.9,21.9z"></path> <path fill="#333333" d="M5.1,22.3c0.1,0.1,0.3,0.1,0.4,0.1c0.3,0,0.6-0.2,0.8-0.5L7.2,20c0.2-0.4,0-1-0.4-1.2c-0.4-0.2-1,0-1.2,0.4 l-0.9,1.9C4.5,21.5,4.7,22,5.1,22.3z"></path> <path fill="#333333" d="M59,38c-0.2-0.4-0.8-0.6-1.2-0.4c-0.4,0.2-0.6,0.8-0.4,1.2l0.9,1.9c0.2,0.3,0.5,0.5,0.8,0.5 c0.1,0,0.3,0,0.4-0.1c0.4-0.2,0.6-0.8,0.4-1.2L59,38z"></path> <path fill="#333333" d="M54.8,37.6c-0.4-0.2-1,0-1.2,0.4l-0.9,1.9c-0.2,0.4,0,1,0.4,1.2c0.1,0.1,0.3,0.1,0.4,0.1 c0.3,0,0.6-0.2,0.8-0.5l0.9-1.9C55.5,38.4,55.3,37.9,54.8,37.6z"></path> </svg> 